<?xml version="1.0" encoding="utf-8"?>
<!-- Generator: Adobe Illustrator 25.4.1, SVG Export Plug-In . SVG Version: 6.00 Build 0)  -->
<svg version="1.1" id="Layer_1" xmlns="http://www.w3.org/2000/svg" xmlns:xlink="http://www.w3.org/1999/xlink" x="0px" y="0px"
	 viewBox="0 0 1900 1000" style="enable-background:new 0 0 1900 1000;" xml:space="preserve">
<style type="text/css">
	.st0{fill:#0D081E;}
	.st1{fill:#13111F;}
	.st2{fill:#FFFFFF;}
	.st3{fill:#A5A5A5;}
	.st4{fill:#D8D8D8;}
</style>
<path class="st0" d="M0,1005.1L0.1,0.1c333.9,0,652.8-73.3,1001.6,0c422.7,79.9,620.9,196.2,885.1,502.5
	c134.8,153.4,105.7,473.1,19.7,500.8C1271,1004,635.5,1004.5,0,1005.1L0,1005.1z"/>
<path class="st1" d="M870.9,101.4"/>
<g>
	<g>
		<path class="st2" d="M218.9,809.9c-3.6,2.6,0.3,5,2.8,6.9c-6.8,3.9,1.1,6.9,5.3,5.6c-1.1,2.8-2.9,6-0.6,8.6
			c0.9-1.8,2.1-3.6,3.6-5.1c0.4,0.4,0.7,0.9,1.1,1.3c0.3,0.5,0.4,1,0,2.3c0.1,0,0.2,0,0.2,0c-3.3,3.2-7.7,3-8.3,9.1
			c1.3-0.6,2.6,0,3.9-0.3c-0.1,0.9,0.3,2.2,0.2,3.1c1.1,0.1,1.9,0.8,3.1,0.9c-0.4,3.5-9.1,19.3,1.3,18.9c-1.4-3.5-5.2-9.9,0.6-11
			c0.1,2.2,1,3.6,1.5,5.6c-0.5-3.8,0.4-10.8,5.1-10.2c-0.6,4.6-4.5,10.7,1.3,14.3c-0.1-3.6,0.2-8.2,2.9-11c5.2-5.2,4.7,1.4,9.6-0.7
			c0.1,0.4,0.2,0.8,0.3,1.2c1.4-1.2,2-0.8,3.7-1.1c0.4,4.3-3.4,14.8,4,13.2c-3,6,10.9,12.4,15.8,13.7c0-0.7,0.2-1.6,0.2-2.3
			c0.1,0.1,0.2,0.1,0.3,0.2c0.6,1.5,1.2,3,1.7,4.7c1.5,4.7,25-7.7,15.6,7.1c-4.8,7.6-16.6,8.3-20.1,17.4c-1.8,4.5,1.3,14.1,1.3,19.3
			c0,15.7,0.6,30.9-2.8,46.3c-3.5,15.7,1.7,19.2,15.1,27.6c6.4,4,15,4.2,8-4c4.3-2.6,21.5,4.2,22.2,1.3c1.3-4.8-28.9-11.8-33.1-14.7
			c-8.7-6.1-3.1-24.7-2.2-33.5c1-10.3,1.3-25,5.2-34.5c3.6-8.7,12-14,18.9-20c2.3-1.9,18.5-15.1,16.4-3.6
			c-1.3,7.3-10.1,9.5-11.6,16.5c-1.7,7.5,3.9,16.1,5.9,23.2c2.3,8.6,3.7,17.5,5.5,26.3c1.7,8.5,3.7,24.5,9.5,31.1
			c5.8,6.6,21.9,11.2,30.2,10.4c-2.9-2.6-8.1-2.7-9.2-7.1c8.4-2.5,16.3,5.7,25,4.2c-1.5-4.2-8.2-6.6-12.3-7.6
			c-13.7-3.6-20.4-1.2-27.4-15.1c-5.2-10.3-6.4-20.1-9.3-30.9c-2.8-10.3-4.2-22.3-1.3-33.2c1.6-6.1,4.7-20.8,11.4-23.2
			c2.5-0.9,7.1,1.4,10.2,0.8c4.3-0.8,9.3-4.1,12.7-6.7c4.5-3.4,10-7.3,13.7-11.9c4.6-5.9,4.9-12.6,6.9-19.4
			c1.1-3.7,4.5-13.4,7.6-13.4c2.5-8.3-0.2-13.7-1.2-21.6c-0.6-4.8,0.1-5.9-2.4-10.7c-1.3-2.4-3.7-4.3-5-6.9
			c-1.6-3.4-1.1-4.9-3.8-7.9c-1-1.2-6.9-5.6-8.4-6.3c-1.6-0.6-3.2-0.6-4.8-0.4c-0.1-0.7-0.2-1.4-0.3-2.1c-1-6.8-1.4-13.9-1.7-20.9
			c-0.2-3.7-0.2-7.3-0.4-11c-0.7-12.5-3.2-27-1.1-39.4c2.1-12.6,13.3-12.4,23.6-13.7c0.1-0.3,0.7-1.9,0.2-2.2
			c-3.3-1.8-7.7-1.7-10.8-3.9c-3.4-2.4-2.8-7.3-8.8-5.6c-0.2,0.6,0,1.2-0.2,1.8c-0.2,0-0.3,0.1-0.5,0.1c-3.8,0-9.3-5.2-12.6-2.7
			c-0.6,0.4-3.3,10.3-3.3,11.8c-0.2,5,1.8,8.2,1.4,13.9c-0.5,5.4-1,10.9-0.7,16.5c0.6,10.8,1.1,21.6,1.3,32.4
			c0.1,5.6,0.1,11.1,0,16.7c0,2.5,0.2,4.9,0.3,7.4c-1.3-0.8-3.1-1.4-4.1-2.3c0.5,0.4,0.5,2.2,0.6,2.8c-2.7-2.5-5.2-1-6.2,2.2
			c-1.9-1.1-4-1.7-6.1-1.7h0c0.2,1.1-0.3,2.5,0,3.6c-2-0.5-4-1.3-5.9-2.3c-0.1,0.6,0,1.2-0.2,1.8c-2.2-0.5-4.7-1.6-7-1.8
			c-0.1,0.4-0.2,0.7-0.2,1.1c-8-1.6-13.9-6.2-22.9-5.7c0.2,0.3,0.8,0.9,1,1.2c-4.8-1.5-12.7-1.3-16.9,1.4c-4.7,3.2-4,8.2-10.5,8.9
			c0.9,0.4,1.6,1,2.4,1.3c-4.8,2.2-9.4,5.1-14.3,7.4c-4.8,2.2-7.3,2.7-10.7,2.1c-3.2-1.8-5.3-4.4-8.5-6.4c0.1,0.3,0.1,0.7-0.1,1
			c-2.9-1.3-4.4-4.2-7.7-4.6c0.7-0.4,1.2-1,2.3-1.2c-6.3-2-12.3-1.9-17.7,2c1,0.1,2.8,0.8,4.5,0.6c-3,0.8-7.1,3.3-3.2,5.4
			c-0.4,0.9-0.3,2.1-0.9,3.2c1.4,0,2.6,0.7,4.1,0.1c-1.9,1.3-2.7,3.1-3.7,5.1c2.5-0.5,4.9-0.8,6.5,0.8c-3.6,1.2-6.5,6.2-9.9,4.8
			C216.9,807,217.6,808.9,218.9,809.9z M361,747c0-3.2,0.1-7.3,0.1-11.4c0,0.3,0.1,0.6,0.1,0.9C361.6,740,361.3,743.5,361,747z"/>
		<path class="st2" d="M1832.5,919.9c0.8-0.9,1.7-2.5,1.5-5.1c-0.1-3.1-1.2-4.7-2.1-5.6c-0.2-0.2-0.5-0.1-0.7,0.2
			c-0.3-1.3-0.5-2.6-0.8-3.9c0,0,0,0,0,0c0.4-0.8,0.7-1.6,0.9-2.8c0.2-0.5,0.4-1.3,0.4-2.2c0-1.9-0.2-3.8-0.5-5.5
			c-0.1-0.5-0.2-1-0.4-1.5c-0.1-0.5-0.2-1.4-0.2-0.2c-0.2-3.6-2.3-3.6-2.1,0c0,0.7,0.1,1.4,0.2,2c-0.5-2-1-4.2-1.6-6.4
			c0.2-2.6,0.5-5.5,0.1-8c-0.4-2.8-1.3-3.5-2.2-3.5c-0.3-2.3-0.8-4.8-1.7-4.8c-1,0-1.5,3.1-2,5c0,0,0,0,0,0.1
			c-0.3-0.1-0.5,0-0.8,0.1c0-0.1,0-0.2,0-0.3c0.6,0.4,1.3-0.5,1.2-2.6c0-1.7-0.3-3.4-0.5-5.1c0.1-1.2-0.2-2.5-0.6-3.1
			c-0.1-0.3-0.1-0.6-0.2-0.9c0.9-2.2-0.1-6.6-1.2-4.6c-0.2,0.4-0.5,0.8-0.7,1.3c-0.1,0.1-0.1,0.3-0.2,0.4c-0.3,0.9-0.4,2.2-0.2,3.5
			c0,0.1,0,0.1,0,0.2c-0.3-0.7-0.7-1.4-1-2.2c-0.2-0.5-0.5-0.8-0.8-0.8c0.3-1.3,0.3-3.2,0.1-5v-5.2c0-1.7-0.5-2.6-1-2.7
			c-0.5-0.4-0.9-0.8-1.4-1.2c-0.8-0.7-1.4,1.5-1.3,3.5c0.1,0.7,0.1,1.4,0.2,2c0,0,0,0-0.1-0.1c-0.4-1-0.9-1.8-1.4-2.5
			c-0.2-0.5-0.5-0.9-0.8-1.3c0.3-1.3,0.4-2.8,0.4-4.6c0-0.1,0-0.1,0-0.1c0.5,0.1,1-1.1,0.8-2.7c-0.1-0.7-0.2-1.4-0.3-2.1
			c0.4,0.4,0.8,0.9,1.2,1.6c0.6,1.1,1.3-0.7,1.2-2.4c-0.1-0.8-0.4-2-0.5-3.1c0.8-0.3,1.6-0.5,2.4-0.9c0.3-0.1,0.5-0.2,0.5-0.3
			c0.1-0.1,0.2-0.1,0.3-0.2c0.4-0.3,0.6-1.4,0.5-2.4c0.1,0,0.1,0,0.2,0c-0.1-0.2-0.2-0.4-0.3-0.6c0-0.2-0.1-0.5-0.2-0.7
			c0.3-0.7,0.3-1.9,0-2.8c-0.4-1.2-1-4.1-1.6-2.7c0.5-1.2,0.1-3.7-0.6-3.6c-1.2,0.2-1.6,0.7-2.7-1.1c-0.3-0.5-0.7-0.3-1,0.3
			c-0.9,2.1-2.1,2.7-3.2,3.3c-1-4.8-2.2-6.6-3.5-6.2c-1.4-1.8-3.2-0.1-4.7,2.9c-0.7-0.3-1.2,0.2-1.7,1.1c-0.9-0.5-1.7-1.1-2.6-1.8
			c0.4-0.6,0.8-1.3,1.1-2.1c0.4-1,0.2-3.3-0.3-3.6c-1.7-0.8-3.4-2.1-5.1-2.6c-0.2-0.9-0.4-1.7-0.7-2.5c0-1-0.3-1.9-0.7-2
			c-0.1-0.2-0.1-0.3-0.2-0.4c0-0.1,0.1-0.1,0.1-0.2c0.3-0.7,0.3-2.3,0-3c-0.8-1.8-1.6-4.4-2.6-5.2c-0.9-0.7-2.1,1.1-2.9,1.8
			c-0.1,0.1-0.3,0.4-0.3,0.7c-1.1-0.5-2.2-0.7-3.3-0.7c0-0.1-0.1-0.2-0.1-0.3c0.1-0.9,0-1.9-0.4-2.3c-0.4-0.5-0.8-1-1.3-1.5
			c-0.1-0.7-0.2-1.2-0.5-1.6c-0.3-0.4-0.8-1.1-1.2-1c-0.1,0-0.2,0.1-0.3,0.2c0-0.7-0.1-1.5-0.4-1.9c-0.9-1-2.2-1.4-3.1,0
			c-0.1,0.1-0.2,0.3-0.2,0.5c-0.5-0.1-1.1-0.1-1.6-0.7c-0.5-0.5-1,0.8-1,2.1c0,1.5,0,3,0.4,4.2c0,0.1,0,0.2,0.1,0.3
			c-0.9-0.2-1.8-0.2-2.7,0c0.9,2.8,1.8,8.4,2.5,11c-0.1-0.1-0.3-0.1-0.4-0.1c-0.6-3.3-1.6-6-3.2-7.4c-0.2-0.2-0.4,0.1-0.5,0.5
			c-0.4-0.8-0.9-1.3-1.5-1.3c-0.2,0-0.4,0-0.6,0.1c-1.2-3.1-2.8-6.4-4.5-5.2c-0.6,0.4-1.2,1.4-1.5,2.8c-0.1,0.1-0.2,0.2-0.3,0.4
			c-0.1,0-0.2,0-0.3,0.1c-1-3.2-2.4-4.5-4.5-4.5c-0.4,0-0.6,1.2-0.5,2.1c0.1,0.8,0.2,1.6,0.4,2.4c-0.2-0.1-0.3-0.1-0.5-0.2
			c-1.1-1.3-2.2-2.1-3.5-2.9c-0.4-0.2-0.8,0.7-0.6,1.7c0.1,0.8,0.2,1.6,0.3,2.4c-1,1.2-1.8,3.4-2.2,6.7c-0.1,1.2-0.2,2.3-0.2,3.3
			c-0.2,0-0.5,0.1-0.7,0.6c-0.7,1.5-0.9,4-1.3,6c-0.3-0.2-0.5-0.7-0.7-1.7c0.2-0.2,0.4-0.5,0.6-0.9c0.4-0.7,0.3-1.8,0.4-2.9
			c0.1-1,0.2-1.9,0.4-2.8c0.3-1.7,0.5-3.3,0.6-5.1c0.2-0.8,0.1-1.9-0.1-2.5c-0.2-0.5-0.4-0.9-0.7-1.2c0-0.2,0-0.5-0.1-0.7
			c0-0.6,0-1.2-0.2-1.9c-0.3-1.4-1-1.2-1.3-0.2c0-0.4-0.1-0.8-0.1-1.2c0-0.4-0.1-0.8-0.1-1.2c0.1-0.6,0.1-1.2,0.2-1.8
			c-0.1,0-0.2-0.1-0.3-0.1c0-0.1,0-0.2,0-0.4c0,0,0-0.1,0-0.1c0.2-0.7,0.1-2-0.1-2.6c-0.5-1-1.3-0.9-1.4,1c0,0.1,0,0.2,0,0.3
			c-0.1,0.5-0.3,1-0.4,1.5c-0.2,0-0.4,0-0.7,0c0.2-1,0.2-2.5-0.3-3c-0.3-0.4-0.6-0.7-0.9-1c0.4-1.1,0.2-2.9-0.4-3.5
			c-1.8-1.7-4.3-3.3-5.8,0.9c0,0.1-0.1,0.2-0.1,0.3c0-0.1,0-0.1-0.1-0.2c-0.1-0.4-0.3-0.7-0.4-1.1c-0.3-0.6-0.6-1.3-0.9-1.4
			c-0.5-0.2-1,0.5-1,2.1c0,0.4-0.1,0.8-0.2,1.2c-0.5,0.2-1,0.6-1.5,1.2c0.3-1.3-0.2-3.1-0.7-3.1c-1.9,0.1-3.6,1.5-5.4,2.9
			c-0.6,0.4-0.7,2.4-0.3,3.6c0.2,0.7,0.4,1.4,0.7,2.1c-0.2,1-0.2,2.3-0.1,3.9c-0.8,0.5-1.5,1.1-2.3,1.8c-0.6,0.6-0.8,2.9-0.2,3.9
			c0.4,0.6,0.8,1.3,1.1,2.1c-0.1,0.1-0.3,0.2-0.4,0.3c-1.1-2.1-2.5-3.3-4-3.5c-0.4,0-0.8,1-0.8,2.1c0,3,0.1,5.5,0.4,8.1
			c-0.1,0.4-0.1,0.8-0.2,1.2h-1.5c-1,0-1,4.3,0,4.3c1.1,0,1.1,2.6,1.5,4.5c0.1,0.5,0.2,0.9,0.3,1.3l-0.7,1c-1.6,0.1-3.3,1.6-4,5.9
			c-1.1,3.4-1.5,7.7-1.6,12.2c0,1.4,0.4,2.1,0.8,2.1c-0.8,1.1-1.6,2-2.6,2.7c0,0,0,0,0-0.1c0-1.6-0.6-2.5-1.1-2.5
			c-0.5,0-0.8,1.2-0.8,2.3c-0.2,0.3-0.4,0.6-0.6,0.8v-3.8c0-1.9-0.9-2.8-1.3-1.5c-0.9,2.5-1.8,5.1-3,6.8c-0.1,0-0.2,0-0.3,0
			c0,0,0,0,0,0c-1-1.2-1.9-0.8-2.8-0.1c-0.8-0.1-1.6-0.2-2.4-0.3c0.1-0.2,0.1-0.4,0.2-0.5c0.6-2.1-0.5-5.2-1.1-3
			c-0.4,1.4-0.9,2.4-1.3,3.3c-1.7-0.2-3.2-0.3-4.4-0.1c0.8,0.9,1.9,4.3,2.8,6.1h-1.8c-0.5,0-1,1.4-0.8,2.7c0.1,0.5,0.2,1,0.2,1.5
			c-2.9,2.5-6.5,3.5-7.9,10.8c0.7,1.3,1.4,2.3,2.2,3.4c-0.2,1.2-0.4,2.4-0.6,3.6c0-0.4-0.2-0.9-0.7-1c-2.3-0.8-5.3-1.5-7.2,0.4
			c0,0.1-0.1,0.1-0.1,0.2c0,0-0.1-0.1-0.1-0.1c-0.2-0.2-0.3-0.3-0.5-0.5c-0.3-0.3-0.7-0.6-1.1-0.7c-0.6-0.1-1.2,0.2-1.2,0.9
			c0,0.2-0.1,0.4-0.2,0.5c-0.6,0.1-1.3,0.3-1.9,0.6c0.4-0.6-0.2-1.4-0.9-1.4c-2.4,0.1-4.5,0.7-6.8,1.3c-0.7,0.2-0.9,1.1-0.4,1.6
			c0.3,0.3,0.6,0.6,0.8,0.9c-0.2,0.5-0.3,1.1-0.1,1.8c-1,0.2-1.9,0.5-2.9,0.8c-0.8,0.3-1,1.3-0.2,1.8c0.5,0.3,0.9,0.6,1.4,1
			c-0.2,0-0.3,0.1-0.5,0.1c-1.4-1-3.1-1.5-5-1.6c-0.5,0-1,0.5-1,1c0,1.4,0.1,2.5,0.5,3.7c-0.1,0.2-0.2,0.4-0.2,0.5h-1.9
			c-1.3,0-1.3,2,0,2c1.3,0,1.4,1.2,1.9,2.1c0.1,0.2,0.3,0.4,0.4,0.6l-0.9,0.5c-2,0-4.1,0.7-4.9,2.7c-1.4,1.5-1.9,3.5-2,5.6
			c0,0.6,0.5,1,1,0.9c-0.9,0.5-2,0.9-3.2,1.2c0,0,0,0,0,0c0-0.8-0.7-1.1-1.4-1.2c-0.7,0-1,0.5-0.9,1c-0.2,0.1-0.5,0.3-0.7,0.4v-1.7
			c0-0.9-1.1-1.3-1.7-0.7c-1.1,1.1-2.3,2.3-3.7,3.1c-0.1,0-0.2,0-0.3,0c0,0,0,0,0,0c-1.2-0.5-2.3-0.4-3.5-0.1c-1,0-2-0.1-3-0.1
			c0.1-0.1,0.2-0.2,0.2-0.2c0.8-1-0.6-2.4-1.4-1.4c-0.5,0.6-1.1,1.1-1.6,1.5c-2.1-0.1-4-0.1-5.5,0c1,0.4,2.4,2,3.5,2.8h-2.2
			c-0.6,0-1.2,0.6-0.9,1.2c0.1,0.2,0.2,0.5,0.3,0.7c-3.7,1.2-8.1,1.6-9.9,4.9c0.8,0.6,1.8,1.1,2.7,1.6c-0.3,0.6-0.6,1.2-0.9,1.8
			c-0.2,0.5-0.1,0.9,0.2,1.2c-0.4,0.1-0.8,0.2-1.2,0.4c-0.4,0.2-0.6,0.7-0.5,1.1c0.2,0.5,0.5,0.8,0.8,0.9c-0.1,0-0.3,0.2-0.8,0.4
			c-0.3,0.1-0.5,0.2-0.8,0.3c-0.4,0.1-0.8,0.3-1.2,0.5c0.3,0.6,0.5,1.2,0.6,1.8c0.1,0,0.1,0,0.2-0.1c0.1,0,0.2-0.1,0.3-0.1
			c0,0.4,0,0.7,0.1,0.9c-0.2,0-0.3,0-0.5,0c0,0.2,0,0.4,0,0.7c0,0.4-0.2,0.8-0.3,1.2c0,0,0.1,0.1,0.1,0.1c0.7,0,1.5,0.1,2.2,0.2
			c0,0.1,0.1,0.3,0.1,0.4c-0.1,0.1-0.3,0.2-0.4,0.3c-0.2,0.1-0.3,0.3-0.4,0.5c0.3-0.1,0.7-0.2,1-0.2c0.4,1.5,1.1,3.2,2.3,3.7
			c0.5,0.2,1,0.2,1.4-0.1c1.4,1.9,2.9,3.8,4.3,5.5c3.5,4.4,7.2,8.6,11,12.8c0.6,0.6,1.1,1.3,1.7,1.9c0.6,0.9,1.3,1.7,2,2.5
			c7.3,8.3,18.7,11,27.2,17.7c0,0,0,0.1-0.1,0.1l0.3,0.1c0.5,0.4,0.9,0.7,1.3,1.1c1.4,3.7,2.7,7.3,4.1,11c1.8,0,3.7,0.1,5.5,0.1
			c-0.9-2.4-1.8-4.7-2.7-7.1c-1.1-2.9-2.2-5.8-3.3-8.7c-4.7-8.5-9.1-17.2-11.8-26.6c-0.1-0.4-0.1-0.7-0.1-1.1
			c-0.2-0.2-0.3-0.3-0.5-0.5c-0.5-1.6-0.7-3.4-0.8-5.1c0.9,0.1,1.8,0,2.6,0.2c0.2,0.1,0.5,0,0.6-0.2c0.6,0.2,1.1,0.4,1.6,0.7
			c0.8,0.4,1.4-0.6,0.7-1.1c-0.1-0.1-0.2-0.2-0.4-0.3c0-0.1-0.1-0.3-0.3-0.4c-0.9-0.6-1.8-1-2.7-1.4c-0.5-0.4-0.7-1.1-1-1.8
			c0.6-0.4,1.2-0.7,1.7-1.4c0.5-0.8,1-1.5,1.6-2.2c1.3,0.4,2.7,0.7,4,0.6c0.9,0.7,2.1,1.2,3.7,1.6c0.4,0.1,0.8-0.2,0.8-0.6
			c0-0.7-0.1-1.3-0.3-1.9c0.3-0.1,0.7-0.1,1,0c0.6,0.2,1.2,0.3,1.7,0.5c0.3-0.1,0.5-0.1,0.8-0.2c0-0.1,0-0.2-0.1-0.3
			c0.8,0.5,1.8,0.6,2.6,0.2c1.3,2.5,2.6,5,4.1,7.4v0c0,0.3,0.2,0.5,0.4,0.6c1.9,3.3,4,6.5,6.3,9.5c0,0,0,0,0.1,0.1
			c0.6,2.9,1.2,5.8,1.9,8.6c0.1,1,0.1,1.9,0.1,2.9c-0.1,0.1-0.3,0.3-0.3,0.5v4.6c0,0.4,0.2,0.6,0.5,0.6c-1.4,4.5-3.3,8.6-5.2,12.9
			c-1.2,2.8-2.6,6-3.8,9.4c2.4,0,4.8,0.1,7.2,0.1c0.7-1.9,1.4-3.7,2.1-5.6c0.2-0.1,0.4-0.2,0.5-0.4c1-2.9,2.4-5.5,3.2-8.1
			c0,0.4,0,0.8,0.1,1.3c0.1-0.3,0.2-0.5,0.3-0.8c0-0.6,0-1.1,0-1.7c0.3-1.1,0.4-2.2,0.4-3.4c0.4-1.5,0.7-3.1,0.9-4.7
			c0.3-1.2,0.6-2.5,0.8-3.7c0.7-4.1,1.2-8.3,1.5-12.4c0.3-0.5,0.7-1,1.1-1.5c0.4,1.3,0.9,2.7,1.3,4c0.5,1.4,0.9,2.8,1.4,4.1
			c0.5,1.9,1,3.7,1.6,5.4c1.4,4.2,2.9,7.7,4.5,10.9c-1.3,2.2-3.1,4.9-4.9,6.8c-0.3,0.9-1.1,1.4-1.9,1.7c-0.3,0.2-0.7,0.4-1,0.5
			c-0.4,2.4-1.1,4.8-1.8,7c-0.1,0.3-0.2,0.6-0.3,1c3.1,0.1,6.2,0.2,9.2,0.3c0.7-3.9,1.6-7.5,4-11.5c2.6,4.1,5.3,7.7,8,11.7
			c1.8,0,3.6,0,5.3,0c-0.4-0.6-0.8-1.2-1.1-2c0-0.1-0.1-0.3-0.2-0.3c-0.4-0.5-0.8-1-1.2-1.5c-2.3-3.7-4.7-6.7-7.1-9.7
			c0,0-0.1-0.1-0.1-0.1c0-0.1-0.1-0.1-0.1-0.1c-0.4-0.5-0.8-1-1.2-1.5c0,0,0-0.1-0.1-0.1c0.2-0.3,0.4-0.6,0.6-0.9
			c2.4-1,4.9-1.8,7.4-2.5c1,6.2,2,12.4,3,18.8c1.4,0,2.8,0,4.2,0c-1.3-6.5-2.5-13-3.7-19.6c6.4-1.5,13-2.6,19.1-5c0,0.4,0,0.7,0,1.1
			c-0.1,0.2-0.2,0.6-0.2,1.1v10c0,0.8,0.2,1.3,0.4,1.4c-0.4,3.9-1,7.6-1.5,11.4c1.8,0,3.6,0,5.3,0.1c0-1.1,0.1-2.2,0.1-3.3
			c0.3-3.4,0.6-6.8,0.7-10.2c0.3-2.7,0.5-5.4,0.7-8.1c0.1-2.1,0.2-4.2,0.3-6.3c2.3-1.5,4.2-3.3,5.8-5.3c0.1,0,0.2-0.1,0.3-0.1
			c3.7-2,7.5-4,11.3-5.9c-0.2,5.2-0.1,9.6-1.6,15.9c-1.6,6.4-3.9,11.6-5.5,18c-0.3,1.1-0.7,3.1-1.3,5.6c2.6,0.1,5.3,0.1,7.9,0.2
			c8.4-7.4,17.7-8.2,25.3-21c2-3.4,3.6-7.6,5-12.3c0.1,0,0.1-0.1,0.2-0.2c3.9-5.8,7.9-11.5,11.9-16.8c3.3,1.9,6.8,2.6,10.2,2.9
			c0,0,0,0.1,0,0.1c0.1,0.9,0.6,1.4,0.9,1.4h1c0.5,0,0.9-0.9,1-2.1c0-0.4,0.1-0.9,0.1-1.3c0.1-0.1,0.1-0.3,0.2-0.4
			c0.1,0.2,0.2,0.4,0.3,0.6c0.1,0.1,0.1,0.2,0.2,0.3c-0.3,1-0.3,2.4,0.1,3.6c0.5,1.4,0.8,3.2,1.4,4.4c0.6,1.3,1.5,1.2,2.2,0.6
			c0.4-0.4,0.8-1.5,0.8-2.7c0-2.4-0.2-4.7-0.7-6.6c-0.3-1.2-0.7-2.2-1.1-3.3c0-0.3,0.1-0.6,0.1-0.9c0.2-0.3,0.4-0.6,0.6-1
			c0.2,0,0.4,0,0.6,0c0.1,0,0.1,0.1,0.2,0.1c0.3,3.2,1,7.5,2.2,6c0.6-0.3,1.2-1,1.5-2.4c0.3,0.1,0.5,0,0.8-0.4
			c0.2,0,0.4-0.1,0.6-0.3c1.1-1.5,2-4.1,1.9-7.6c-0.1-1.9-0.4-3.5-0.8-4.8C1832.6,922.2,1832.5,921.1,1832.5,919.9z M1811.8,826.9
			c0.9,1.1,1.5,1.2,2.5,1.1c0.1,0.4,0.2,0.9,0.3,1.3c-0.1,0.1-0.2,0.3-0.3,0.5c-1-0.8-2.2-1.3-3.4-1.6
			C1811.3,827.8,1811.5,827.4,1811.8,826.9z M1656.6,939.7c-0.4-0.3-0.8-0.8-1.2-1.3c0-0.4-0.1-0.8-0.1-1.2c0.3,0,0.7,0,1-0.1
			C1656.3,938,1656.4,938.9,1656.6,939.7z M1656.5,926.8c-0.1,0.7-0.1,1.4-0.2,2.1c-0.2-0.1-0.3-0.3-0.5-0.4
			c-0.4-0.7-0.9-1.4-1.5-1.8C1655.1,926.7,1655.8,926.8,1656.5,926.8z M1650.6,903.6c0-0.3,0-0.6,0.1-0.9c0.1,0.3,0.3,0.6,0.5,0.8
			c-0.2,0.2-0.4,0.3-0.6,0.5C1650.6,903.9,1650.6,903.7,1650.6,903.6z M1643.3,938.7c0.4,0.4,0.8,0.8,1.3,1c0.1,0.2,0.2,0.5,0.3,0.7
			c-0.3,0-0.6-0.1-0.9-0.1c-0.3-0.4-0.6-0.8-0.9-1.2C1643.2,938.9,1643.2,938.8,1643.3,938.7z M1637.8,936.6
			c0.2,0.5,0.7,0.9,1.2,0.9c0,0,0,0,0,0c0,0.1,0,0.2,0,0.4c-0.5-0.4-1.1-0.8-1.6-1.2C1637.6,936.7,1637.7,936.7,1637.8,936.6z
			 M1618.3,918.4c0.8,0.4,1.6,0.9,2.2,1.4c0,0,0,0,0,0.1c-0.2-0.2-0.4-0.4-0.7-0.4h-2C1617.9,919.2,1618.1,918.8,1618.3,918.4z
			 M1617.4,931.4c-0.1-0.3-0.3-0.6-0.4-0.9c0.1,0.1,0.2,0.1,0.3,0.2c0.3,0.5,0.6,1,0.9,1.5C1617.9,932.1,1617.6,931.9,1617.4,931.4z
			 M1619.5,931c-0.1,0.1-0.2,0.3-0.3,0.4c-0.3-0.5-0.6-1-0.9-1.5c0.1,0,0.1,0,0.2,0c1.3,0.3,3,1.1,4,2c0.1,0,0.2,0.1,0.3,0.1
			c0.6,0.2,1.2,0.3,1.7,0.5c-0.1,0-0.1,0-0.2,0.1c0,0,0,0,0,0c-0.3,0.2-0.4,0.6-0.2,0.9c0,0,0,0.1,0.1,0.1c-0.4,0.1-0.8,0.3-1.1,0.6
			c-0.3-0.3-0.6-0.7-0.9-1c-0.5-0.7-1-1.5-1.5-2.2C1620.4,930.6,1619.8,930.6,1619.5,931z M1625,938.9c-1-1.2-2-2.5-3.1-3.8
			c0.4,0.3,0.8,0.6,1.3,0.7c0.8,0.2,1.2-0.3,1.6-0.9c0.6,1,1.5,2.1,2.2,2.4c0.2,0.1,0.6,0.1,0.8-0.1c0.2-0.3,0.2-0.9,0.1-1.7
			c0,0,0.1,0,0.2,0c1.4,4.2,2.8,8.4,4.7,12.4C1630.1,945,1627.5,942,1625,938.9z M1652.4,964.7c-2.1-1.1-4.3-2.3-6.4-3.6
			c1,0.5,2,1,3,1.5c0.9,0.4,1.8,0.8,2.6,1.2c0.3,0.3,0.6,0.5,0.9,0.8C1652.5,964.6,1652.4,964.7,1652.4,964.7z M1664.4,969.1
			c-0.5-0.3-1-0.6-1.4-1c0-0.1-0.1-0.1-0.2-0.2c-0.5-0.2-1-0.5-1.5-0.7c-2.8-1.7-5.8-3.1-8.8-4.5c0,0-0.1,0-0.1-0.1
			c0,0-0.1,0-0.1-0.1c-0.5-0.2-1-0.4-1.4-0.7c-2.8-1.3-5.5-2.6-8.1-4.3c-2.1-1.4-3.8-3-5.4-4.7c-3.7-5.2-5.8-11.4-7.9-17.5
			c0.1,0,0.3,0,0.4,0c0.2,0.3,0.4,0.6,0.8,0.6c0.1,0,0.3-0.1,0.4-0.1c0.9,0.2,1.6,0.7,2.5,1c0.6,0.1,1.1,0.1,1.6-0.1
			c0.2,0,0.3,0.1,0.5,0.1c0.1,0,0.1,0,0.2,0c1.2,1.3,2.7,2.1,4,3.3c0.3,0.3,0.8,0.2,1-0.1c0.3,0.2,0.6,0.4,0.8,0.5
			c0.5,0.3,1.1,0.5,1.6,0.6c1.9,2.4,3.9,4.7,5.8,6.9c2.2,2.6,4.5,5.1,7,7.5c1,1,2.3,2.3,3.7,2.9C1661.5,962,1663,965.5,1664.4,969.1
			z M1658.8,956.4c-1-0.8-1.8-1.8-2.5-2.5c-2.3-2.2-4.4-4.6-6.5-7c-1.5-1.7-3-3.5-4.5-5.3c0.2,0,0.5,0.1,0.7,0.1
			c0.5,0.1,1.1-0.4,0.7-1c-0.1-0.2-0.3-0.5-0.4-0.7c0.4,0.2,0.8,0.4,1.2,0.6c0.8,1.1,1.8,2,3.1,2.6l0,0c-0.8-0.2-1.6-0.4-2.3-0.5
			c0.1,0.4,0.3,0.7,0.4,1.1c1.1,0.2,2.2,0.5,3.2,0.8C1654.5,948.4,1656.7,952.3,1658.8,956.4z M1659.3,887.5
			c-0.5,0.2-0.9,0.4-1.3,0.7c-0.1-0.3-0.1-0.7-0.1-1.1C1658.4,887.2,1658.8,887.3,1659.3,887.5z M1660.5,895.8
			c-0.2,0.1-0.4,0.2-0.6,0.2c-0.3-0.4-0.6-0.8-0.9-1.2C1659.5,895.1,1660,895.5,1660.5,895.8z M1659.2,930.9c-0.2,0.4-0.7,0.7-1.2,1
			c-0.1-0.3-0.3-0.5-0.5-0.7c0.3-0.2,0.5-0.6,0.1-1c-0.1-0.1-0.3-0.3-0.4-0.4c0.1-1,0.1-1.9,0.2-2.9c0.1,0,0.1,0,0.2,0
			c0.9,0.8,2,1.4,3.1,1.9C1660.2,929.5,1659.6,930.2,1659.2,930.9z M1663.1,928.2c0-0.2,0-0.3,0-0.5c0.2-0.2,0.4-0.5,0.7-0.7
			c0.2,0.5,0.5,1,0.8,1.4C1664,928.4,1663.5,928.4,1663.1,928.2z M1664.8,886c-0.4-0.3-0.8-0.6-1.2-0.9c0.3-0.1,0.7-0.2,1.1-0.3
			c0.2,0.4,0.4,0.7,0.6,1.1C1665.1,885.9,1664.9,885.9,1664.8,886z M1680.1,933.9c-1-1.9-2.1-3.7-3-5.6c0.1-0.2,0.3-0.5,0.3-0.8
			c0-0.1,0.1-0.3,0.1-0.4c0,0.5,0.4,0.7,0.8,0.6c0.5,0.8,1.1,1.5,1.8,2.1V933.9z M1817.1,880.1c0,0.2,0,0.5,0,0.7
			c-0.1,0.1-0.3,0.2-0.4,0.4c0-0.1-0.1-0.1-0.1-0.2c-0.1-0.8-0.2-1.5-0.4-2.2C1816.5,879.3,1816.8,879.7,1817.1,880.1z
			 M1809.4,839.3c0,0.1,0,0.2,0.1,0.4c0.1,0.2,0.1,0.5,0.2,0.7c-0.4,0-0.7,0.3-1.1,1.2c-0.2-0.2-0.4-0.4-0.5-0.6
			C1808.4,840.4,1808.9,839.8,1809.4,839.3z M1807.6,870.8c0,0.2,0,0.4,0.1,0.6c-0.1,1.7-0.1,3.5-0.1,5.2c0,0,0-0.1,0-0.1
			c-0.1-0.8-0.2-1.6-0.2-2.5C1807.4,872.8,1807.4,871.8,1807.6,870.8z M1807.7,910.1c0.1,0.1,0.2,0.2,0.3,0.2c0.2,1.3,0.6,1.8,1,1.6
			c0.5,0.9,1,1.7,1.6,2.5c0,0,0,0,0,0.1c-2.1,3.7-4.5,6.3-6.9,8.3C1804.9,918.2,1806.2,913.8,1807.7,910.1z M1804.1,824.6
			c0.2,0.4,0.3,0.8,0.5,1.4c0,0.2,0,0.5,0,0.7c-0.6-0.1-1.2-0.2-1.7-0.3C1803.3,825.5,1803.7,824.9,1804.1,824.6z M1802.9,850.6
			c0,0.1,0,0.2,0.1,0.3c-0.1,1.3-0.2,2.6-0.2,3.9C1802.6,853.8,1802.5,852.6,1802.9,850.6z M1802,868.3c0.2,0.6,0.3,1.2,0.4,1.7
			c-0.5,0.2-1.1,0.4-1.6,0.5C1801.1,869.6,1801.5,868.9,1802,868.3z M1800.3,875.5c0.2,0.4,0.4,0.8,0.6,1.4c0.1,0.3,0.3,1.3,0.6,2.5
			c0,0.3-0.1,0.7-0.1,1.1C1800.8,879.2,1800.4,877.7,1800.3,875.5L1800.3,875.5z M1795.6,906.5c0,0,0.1,0.1,0.1,0.1
			c1.5,1.5,3.4,3.7,5,3.7c0.8,0,0.9-1.2,0.9-2.8c0.3,0.6,0.6,1,1,1.3c0.5,0.3,1-0.6,1-2.1c0-0.9,0-1.8,0-2.7c0.3,0.9,0.6,1.7,1,2.5
			c-2.7,7.6-4.6,17.2-6.6,26.5c-0.3-0.5-0.5-1-0.8-1.4c0,0,0,0,0,0c0.5-0.4,0.9-0.8,1.1-1.3c0.3-0.2,0.5-0.6,0.5-1
			c0-0.9-0.2-1.7-0.7-2.5c-0.1-0.2-0.3-0.5-0.5-0.7c-0.2-0.2-0.3-0.7-0.2-0.1c-0.2-1.7-2.8-1.7-2.6,0c0,0.3,0.1,0.6,0.3,0.9
			c-0.6-0.9-1.3-1.9-2-2.9c0.3-1.2,0.6-2.5,0.2-3.7c-0.5-1.3-1.6-1.6-2.8-1.6c-0.3-0.7-0.7-1.5-1.3-1.9
			C1791.4,914.3,1793.5,910.5,1795.6,906.5z M1795.1,936.6c-0.3-0.7-0.6-1.3-0.9-1.9c0.2-0.1,0.3-0.3,0.5-0.4
			C1794.9,935,1795.1,935.8,1795.1,936.6z M1782.2,946.3c-2.8-0.1-5.5-0.3-8.3-0.7c0.1-0.4,0.2-0.9,0.3-1.3c2.3-1,4.6-2,6.9-2.9
			c0.1,1,0.4,2,1.1,2.9C1782.1,945,1782.1,945.7,1782.2,946.3z M1763.2,906.6c-0.1,0.6-0.2,1.2-0.3,1.8c-0.3-0.5-0.3-1,0.2-1.9
			C1763.1,906.5,1763.1,906.6,1763.2,906.6z M1752.9,931.7c-0.5,0.3-0.9,0.7-1.4,1c0.1-0.4,0.2-0.8,0.4-1.2
			C1752.2,931.6,1752.5,931.6,1752.9,931.7z M1744.9,957.2c-0.2,0.1-0.5,0.2-0.7,0.4c0-0.2,0-0.5-0.1-0.7
			c-0.2-6.3-0.6-12.7-1.1-18.9c0.9-0.2,1.8-0.5,2.6-0.9C1745.5,943.8,1745.3,950.5,1744.9,957.2z M1743,937c0-0.5-0.1-0.9-0.1-1.4
			c0.9-0.9,1.7-1.9,2.4-2.9c0.2-0.3,0.4-0.5,0.6-0.8c0,1.3-0.1,2.7-0.1,4C1744.8,936.4,1743.9,936.7,1743,937z M1717,954.2
			c-1.8-4.9-3.6-10.1-5.2-15.3c-1.2-3.7-2.4-7.6-3.6-11.5c0.2,0.1,0.4,0.2,0.6,0.3c0.4,0.2,0.8-0.9,0.6-2.1c0-0.1,0-0.2-0.1-0.3
			c0.1-0.1,0.1-0.2,0.1-0.4c0.1,0.1,0.3,0.1,0.4,0.2c0.1,0.1,0.1,0.2,0.2,0.3c0.6,2.4,1.4,4.4,2.5,5.6l0,0.1
			c-0.6-0.4-1.2-0.8-1.9-1.2c0.1,0.8,0.2,1.6,0.3,2.4c0.9,0.5,1.7,1.1,2.6,1.7c1.5,5.8,2.8,11.8,4,18c-0.1,1-0.1,1.9-0.3,2.9
			C1717.2,954.6,1717.1,954.3,1717,954.2z M1689.9,937.7c-0.5-0.2-0.9-0.4-1.3-0.7c0,0,0.1-0.1,0.1-0.2c0.1-0.1,0.3-0.2,0.4-0.4
			c0.2,0.1,0.5,0.2,0.8,0.4C1689.9,937.2,1689.9,937.5,1689.9,937.7z M1686.5,934.9c0-0.1-0.1-0.2-0.1-0.2c0.4,0.3,0.8,0.7,1.3,1
			c-0.1,0.2-0.1,0.3-0.2,0.5c-0.1,0-0.1,0.1-0.2,0.1c-0.3-0.2-0.6-0.4-0.8-0.6C1686.6,935.4,1686.6,935.2,1686.5,934.9z M1757.5,894
			c-0.2,0.1-0.4,0.1-0.5,0.3c-0.5-0.1-1-0.2-1.4-0.4v-5.4c0.8,1,1.5,1.8,2.3,2.5C1757.8,892,1757.7,893,1757.5,894z M1754.5,893.7
			c0,0-0.1,0-0.1,0c0-0.2,0-0.4-0.1-0.5c0.1,0,0.1-0.1,0.2-0.1V893.7z M1750.6,931.2c-0.2,0.7-0.4,1.5-0.7,2.2c0-0.8,0-1.6,0-2.4
			C1750.2,931.1,1750.4,931.2,1750.6,931.2z M1745.8,931.6c-0.2-0.2-0.5-0.5-0.6-0.8c0.2,0,0.4-0.1,0.6-0.1
			C1745.8,931,1745.8,931.3,1745.8,931.6z M1741,930.8c0,0.3,0,0.6,0.1,1c-0.1-0.3-0.2-0.7-0.2-1
			C1740.9,930.8,1740.9,930.8,1741,930.8z M1728.1,926.2c-0.1,0.4,0.2,0.9,0.7,1.1c-0.3,0.9-0.5,1.7-0.8,2.5c-0.4-1.6-1-3.2-1.7-4.7
			C1726.9,925.5,1727.5,925.8,1728.1,926.2z M1721.7,914.8c0-0.1-0.1-0.1-0.1-0.2c0.2,0.1,0.3,0.2,0.5,0.3
			C1721.9,914.9,1721.8,914.9,1721.7,914.8z M1718.9,924.3c-0.2,0.1-0.3,0.2-0.4,0.4c-0.1-0.2-0.2-0.3-0.3-0.5c0-0.1,0-0.2,0-0.3
			c0.2,0.2,0.5,0.2,0.7,0.2V924.3z M1716.3,917.6c0.3,0,0.5-0.1,0.8-0.1c0,0.6,0.1,1.2,0.1,1.9c-0.3-0.1-0.6-0.2-0.9-0.3
			C1716.3,918.5,1716.3,918.1,1716.3,917.6z M1718.1,918.8c-0.1,0-0.1,0-0.2,0c0-0.5,0-1-0.1-1.4c0.7,0.2,1.4-0.1,2.1,0.3
			C1719.2,918,1718.5,918.3,1718.1,918.8z M1720.5,917.4c0.1,0.1,0.1,0.1,0.1,0.2c-0.1,0-0.2,0.1-0.3,0.1
			C1720.4,917.6,1720.4,917.5,1720.5,917.4z M1697.5,937.5c0.2,1.2,0.4,2.4,0.6,3.5c-0.2-0.7-0.4-1.4-0.7-2
			C1697.5,938.5,1697.5,938,1697.5,937.5z M1698.4,935.5c1-0.3,1.8-0.7,2.5-1.3c0.5,0.4,1.1,0.7,1.8,1c0.1,0,0.1,0,0.2,0v1.2
			c-0.1,0.1-0.1,0.3-0.2,0.4c-0.9,1.7-2.1,3.2-3.2,4.7C1699.1,939.6,1698.7,937.6,1698.4,935.5z M1700.9,922.6c0-0.3,0-0.6,0-0.9
			c0.6,0.5,1.3,1,2,1.5v3.5C1702.5,925.2,1701.8,923.8,1700.9,922.6z M1704.2,924.7c0.2,0,0.3-0.2,0.4-0.6c0.2,0.5,0.5,0.9,0.7,1.2
			c0.4,0.6,0.8,1,1.3,1.2c-0.8,2.4-1.5,4.7-2.4,7V924.7z M1707.1,923.5c0,0.1,0.1,0.1,0.1,0.2c0,0-0.1,0-0.1,0
			C1707.1,923.6,1707.1,923.5,1707.1,923.5z M1719.8,939.3v-8.8c1,0.2,2.3,0.3,2.9,0.1c0.3-0.1,0.5-0.3,0.5-0.6
			c0-0.4-0.3-0.9-0.7-1.3c0-0.2-0.1-0.5-0.3-0.6c-0.2-0.1-0.5-0.2-0.7-0.3c-0.2-0.2-0.5-0.4-0.6-0.6c0.1,0,0.3-0.1,0.4-0.1
			c0.9,0.4,1.9,0.8,2.9,1.2c0.4,0.3,0.9,0.6,1.3,0.9c0.5,0.3,1.1,0.1,1.3-0.4c0.2,0.8,0.5,1.5,0.6,2.3c0,0.1,0,0.1,0.1,0.2
			c-0.1,0.3-0.3,0.6-0.4,0.8c-2.1,3.7-4.8,7.1-6.7,10.8C1720.1,941.7,1720,940.5,1719.8,939.3z M1729.6,932.9
			c1.2-1.6,2.1-3.1,2.7-4.7c0.4,0,0.8,0,1.2-0.1c0.3,0.2,0.6,0.5,0.9,0.7c-0.7,0.3-1.3,0.5-2,0.5c-1.2,0.1-1.3,2.1,0,2
			c1.5-0.1,2.9-0.7,4.2-1.4c0.8,0.3,1.6,0.5,2.4,0.7c-0.3,1.2-0.8,2.5-1.3,3.7c-5.1,4.6-9.5,12.9-15.6,14.9
			C1721.4,943,1726.1,937.4,1729.6,932.9z M1739.7,931.4c0.1,0.3,0.2,0.7,0.3,1c-0.2,0.2-0.5,0.3-0.7,0.5
			C1739.4,932.4,1739.6,931.9,1739.7,931.4z M1741.2,937.1c0,0.1,0,0.2,0.1,0.2c-0.1,0-0.3,0.1-0.4,0.1
			C1740.9,937.3,1741.1,937.2,1741.2,937.1z M1759.8,890.5c0.5,0.7,1,1.3,1.6,1.9c0,0,0,0.1,0,0.1c-0.8,0.3-1.5,0.7-2.3,1.3
			c-0.2,0-0.3,0-0.5,0c0.1-0.7,0.2-1.3,0.2-2c0.1,0.1,0.2,0.1,0.2,0.2C1759.4,892.2,1759.8,891.4,1759.8,890.5z M1759.3,815.3
			c0.1,0,0.2-0.1,0.3-0.1c0,0.4,0.1,0.7,0.2,1c0.3,2.1,0.7,4.1,1,6.1c-0.2,0-0.4,0-0.6-0.1C1760,819.8,1759.7,817.5,1759.3,815.3z
			 M1763,879.9c0.2,0.6,0.5,0.7,0.8,0.5c0,0.6,0.2,1.1,0.4,1.4c0.2,0.2,0.3,0.4,0.5,0.6c-0.3,0.5-0.4,1.4-0.3,2.3
			c0,0.6,0.1,1.2,0.2,1.9c-0.1-0.4-0.3-0.8-0.4-1.2c-0.2-1.5-0.5-2.9-0.9-4.2c-0.2-0.5-0.4-0.6-0.5-0.4c-0.1-0.7-0.3-1.5-0.4-2.2
			c0-0.1,0-0.1,0-0.1l0-0.2C1762.5,878.7,1762.8,879.3,1763,879.9z M1762.4,819.1c0.2,0.5,0.4,1,0.6,1.5c0.1,0.3,0.1,0.7,0.1,1
			c-0.2-0.3-0.5-0.7-0.7-1C1762.4,820,1762.4,819.6,1762.4,819.1z M1766.5,887.7c0.1,0.2,0.1,0.4,0.2,0.6c0.2,0.6,0.4,0.7,0.7,0.6
			v0.5c-0.1,0.2-0.2,0.5-0.3,0.8C1766.9,889.5,1766.7,888.6,1766.5,887.7z M1770.8,901.9c0-0.1,0-0.3,0-0.4c0.1-0.1,0.3-0.1,0.4-0.2
			c0,0.1,0,0.1,0.1,0.2c0.1,0.1,0.1,0.2,0.2,0.3C1771.2,901.8,1771,901.8,1770.8,901.9z M1768.8,918.4
			C1768.8,918.3,1768.8,918.3,1768.8,918.4c-0.1-0.4-0.2-0.8-0.3-1.2c0.1-0.5,0.1-1,0.3-1.4c0,0.1,0,0.2,0.1,0.3
			C1768.8,916.8,1768.8,917.6,1768.8,918.4z M1772.8,906.7c0.3-0.6,0.5-1.3,0.5-2.1c0,0,0,0,0-0.1c0.4,0,0.7-0.2,0.9-0.4
			c0,0,0,0.1,0,0.1c0,0.1,0,0.2,0.1,0.3c-0.1,0.6-0.2,1.3-0.3,1.8c-0.1,0.3-0.1,0.6-0.2,0.9C1773.4,907.1,1773.1,906.9,1772.8,906.7
			z M1775.3,896.5c-0.4-0.1-0.8-0.1-1.2-0.2c0-0.2-0.1-0.4-0.1-0.6c0,0,0.1,0,0.1,0c0.4,0.2,0.9,0.3,1.3,0.4
			C1775.4,896.2,1775.3,896.3,1775.3,896.5z M1763,895.4c0.1-0.1,0.2-0.1,0.3-0.2c0,0.1,0,0.2,0.1,0.2
			C1763.3,895.4,1763.1,895.4,1763,895.4z M1759.8,917.9c0.2,0.2,0.5,0.4,0.7,0.6c0.1,0.1,0.4,0.6,0.8,1.2c-0.1,0.2-0.1,0.3-0.1,0.5
			C1760.5,919.6,1760,918.9,1759.8,917.9L1759.8,917.9z M1760.4,915.6c0.4-0.4,0.9-0.7,1.5-1c0.2,0.3,0.4,0.5,0.5,0.8
			C1761.8,915.5,1761.1,915.6,1760.4,915.6z M1767.4,935.5v1c-0.1,0.6-0.1,1.3-0.2,2c-1,0.4-2,0.7-3,1
			C1765.1,938.1,1766.2,936.8,1767.4,935.5z M1770.2,934.5c0.2,0,0.3,0.1,0.5,0c0.6,0.4,1.3,0.8,1.9,1.2c0,0,0,0,0.1,0
			c-0.8,0.6-1.8,1-2.7,1.5C1770.1,936.3,1770.1,935.4,1770.2,934.5z M1769.9,938.7c1.5-0.7,2.9-1.4,4.1-2.3c-1.2,3.1-2.6,5.6-4,7
			c-0.1,0-0.1,0-0.2,0.1C1769.9,941.8,1769.9,940.3,1769.9,938.7z M1780.1,937.4c0.1,0.5,0.3,1,0.5,1.5c-1.8,0.7-3.7,1.4-5.5,2.2
			c0.4-1.4,0.8-2.7,1.3-4C1777.6,937.4,1779,937.5,1780.1,937.4z M1783.9,922.8c0.8,0.2,1.5,0.5,2.3,0.9c-0.3,0.1-0.6,0.1-0.8,0.2
			c-0.1-0.1-0.2-0.1-0.3-0.2c-0.1,0-0.2-0.1-0.2-0.1C1784.5,923.3,1784.2,923.1,1783.9,922.8
			C1783.9,922.8,1783.9,922.8,1783.9,922.8z M1789.6,926.4c0.2,0.2,0.4,0.5,0.6,0.8c-0.3,0-0.6,0-0.9,0c-0.5-0.4-1-0.7-1.5-1
			C1788.5,926.1,1789.1,926.2,1789.6,926.4z M1794,819.7c-0.2,0.3-0.5,0.7-0.7,1c-0.3-0.6-0.7-1.3-1-2
			C1792.9,819,1793.4,819.4,1794,819.7z M1788.6,903.7c0.6-0.2,1.3-0.4,1.9-0.8c0.2,0.2,0.4,0.3,0.6,0.3c1.2,1.1,2.5,2,3.7,2.5
			c-2.6,5.1-5.3,9.8-8.4,11.8c-0.1-0.5-0.2-1-0.4-1.5c1-2.5,1.9-5.2,2.6-8.1c0.2-0.8,0.4-1.5,0.6-2.2
			C1788.9,905.1,1788.7,904.4,1788.6,903.7z M1787,804.9c0.3,0.6,0.6,1.3,0.9,1.9c-0.3,0.4-0.5,1.3-0.5,2.2c-0.1,0-0.1,0-0.2-0.1
			c0-0.1-0.1-0.2-0.1-0.2c0.4-0.7,0.5-2,0.1-3c-0.1-0.1-0.1-0.2-0.2-0.3c0,0,0,0,0,0c0,0,0,0,0,0c-0.1-0.2-0.2-0.5-0.3-0.7
			C1786.8,804.7,1786.9,804.8,1787,804.9z M1784.3,903.5c0.3,0.1,0.6,0.2,1,0.3c0.2,0.5,0.4,1,0.6,1.4c-0.7,0.7-1.5,1.7-2.2,3.1
			C1784,906.7,1784.2,905.1,1784.3,903.5z M1783.6,903.1c-0.3,2.7-0.6,5.4-1.1,8c-0.2,0.5-0.4,0.9-0.5,1.4c0,0,0,0,0,0.1
			c-0.1,0.3-0.2,0.6-0.3,0.9c-0.3-0.2-0.6-0.4-0.8-0.7c-0.3-0.2-0.7-0.4-1-0.3c0.4-0.6,0.3-1.5,0.1-2.3v-2.4c0-0.8-0.6-1.2-1.2-1.3
			c-0.6-0.2-1.1-0.4-1.7-0.6c-0.1,0-0.3,0-0.4,0c0.5-1.9,0.9-3.7,1.2-5.5c0.2,0,0.4-0.1,0.6-0.1c0,0-0.1,0.1-0.1,0.1
			c-1,0.3-1,4.5,0,4.3c1.2-0.3,2.3-1.5,3.4-3.1C1782.2,902.2,1782.9,902.7,1783.6,903.1z M1775.8,801.3c-0.4,0.1-0.7,0.2-1.1,0.4
			c-0.1,0-0.2-0.1-0.3-0.1c-0.1-0.5-0.2-1-0.4-1.5C1774.6,800.4,1775.2,800.8,1775.8,801.3z M1774.8,893.6c0,0.1,0,0.1,0,0.2
			c-0.1-0.1-0.2-0.1-0.3-0.2c-0.3-0.2-0.5-0.1-0.8,0c-0.1-0.8-0.2-1.6-0.4-2.4C1773.9,892,1774.3,892.8,1774.8,893.6z M1769,867.5
			c0.3,0.4,0.7,0.9,1,1.4c-0.7-0.2-1.4-0.4-1.9-0.8c0-0.3,0-0.6-0.1-0.9C1768.3,867.3,1768.6,867.4,1769,867.5z M1766.6,808.2
			c0,0.5,0,1.1,0,1.6c-0.3-1.1-0.5-2.2-0.8-3.2C1766.1,807,1766.3,807.6,1766.6,808.2z M1764.3,806.3c0.2,0.6,0.5,1.5,0.8,2.6
			c-0.3-0.8-0.7-1.5-1-2.2C1764.1,806.5,1764.2,806.4,1764.3,806.3z M1764.8,866.8c1.3,5.3,2.6,5.4,4.8,6.3c0,0.4,0,0.9,0,1.4
			c-1.2,0.4-2.3,1.2-2.9,3.1c-0.1,0.1-0.2,0.1-0.2,0.2c-0.2,0.1-0.4,0.5-0.5,1c-0.6-0.8-1.2-1.3-1.7-0.9c0-0.2,0-0.4-0.1-0.5
			c-0.2-0.7-0.5-2.7-0.7-4.3c0.3-0.4,0.4-1.2,0.3-2.2c0-0.1,0-0.3-0.1-0.4c0.3-0.2,0.5-0.5,0.8-0.8c-0.1-0.6-0.5-1.4-0.7-2.2
			c0-0.1,0.1-0.3,0.1-0.4C1764.3,866.8,1764.5,866.8,1764.8,866.8z M1763.9,832.5c0,0,0,0.1,0,0.1c-0.2,0.1-0.3,0.1-0.5,0.2
			c-0.2-1.4-0.4-2.8-0.6-4.2c0.1,0,0.1-0.1,0.2-0.1c0.3,0.8,0.6,1.7,0.8,2.8C1763.8,831.7,1763.9,832.1,1763.9,832.5z M1763.5,804.3
			c-0.1,0.2-0.2,0.4-0.3,0.6c-0.7-1.3-1.5-2.3-2.4-3c-0.1-0.1-0.1-0.2-0.2-0.3c-0.2-0.3-0.4-0.5-0.5-0.7
			C1761,800.2,1762.5,802.2,1763.5,804.3z M1759.1,805.4c0-0.5,0-0.9,0.1-1.3c0.5,0.2,0.9,0.5,1.4,0.9c0,0.1,0.1,0.2,0.1,0.2
			c0,0,0,0,0,0.1c0,0.1-0.1,0.1-0.1,0.2c-0.3-0.2-0.5-0.3-0.7-0.3c-0.2,0-0.5,0.5-0.5,1c0,0.1,0,0.1,0,0.2c-0.1-0.2-0.1-0.5-0.2-0.7
			V805.4z M1757.5,809.4c0.1,0.1,0.1,0.1,0.2,0.1h0.6c0.2,1.2,0.4,2.2,0.8,3.1c-0.1,0-0.3,0.1-0.4,0.1
			C1758.3,811.4,1757.9,810.3,1757.5,809.4L1757.5,809.4z M1757.7,886.5c0,0.2,0,0.4,0.1,0.6c0.1,0.4,0.2,0.7,0.3,1.1
			c-0.6-0.6-1.2-1.2-1.8-2c0.4,0.1,0.7,0.1,1-0.2C1757.3,886.2,1757.5,886.3,1757.7,886.5z M1756.9,819.1c-0.2-0.3-0.3-0.7-0.5-1
			c-0.1-0.7-0.1-1.4-0.2-2.1C1756.4,817.1,1756.6,818.2,1756.9,819.1z M1756.7,832.6c0,0,0.1,0,0.1,0c-0.2,0.5-0.4,1.1-0.6,1.6
			c0,0,0,0,0,0c-0.5-1.8-0.8-4-1.2-6.1c0.2,0.4,0.4,0.7,0.5,1.1c0,0,0,0,0,0c-0.1,0.7-0.1,1.6,0.2,2.3
			C1756,832.2,1756.3,832.7,1756.7,832.6z M1755.5,809.3c0,0.7,0.1,1.4,0.1,2.1c-0.1-0.1-0.1-0.1-0.2-0.2c-0.2-0.9-0.4-1.8-0.6-2.6
			C1755,808.8,1755.3,809,1755.5,809.3z M1754.5,890.9c-0.2,0-0.3-0.1-0.5-0.1c-0.3-1.8-0.7-3.5-1.1-5.1c0-0.6,0-1.3,0-1.9
			c0.5,1.2,1.1,2.2,1.6,3.2V890.9z M1752.5,803.6c0.4,0.4,0.7,1,1.1,1.6c-0.1,0-0.1,0-0.2,0c-0.2,0.1-0.3,0.5-0.4,1
			c-0.1-0.2-0.1-0.4-0.2-0.6c-0.2-0.5-0.4-0.5-0.6-0.2c-0.1,0.1-0.1,0.2-0.2,0.3c-0.1-0.7-0.2-1.4-0.4-2.1
			C1751.9,803.5,1752.2,803.5,1752.5,803.6z M1750.9,809.7c0.5,0.7,1.1,2.1,1.5,3.7c0,0.1,0,0.2,0,0.4
			C1751.8,812.6,1751.3,811.2,1750.9,809.7C1750.9,809.7,1750.9,809.7,1750.9,809.7z M1743.4,810.1v-5c0.1-0.1,0.2-0.2,0.2-0.3
			c0.1,0.1,0.1,0.1,0.2,0.2c0.1,0.8,0.1,1.5,0.1,2.3c0,0.5,0.1,0.8,0.1,1.1c-0.2,1.5-0.5,3-0.6,4.6c0,0-0.1,0.1-0.1,0.1
			c-0.1-0.5-0.1-1-0.2-1.5C1743.3,811.3,1743.4,810.8,1743.4,810.1z M1723.8,803.2c0.1,0.8,0.3,1.6,0.5,2.4
			c-0.1,0.1-0.2,0.1-0.4,0.2c-0.3-0.7-0.6-1.3-1-2C1723.2,803.6,1723.5,803.4,1723.8,803.2z M1720.5,827.3c-0.1,0.2-0.3,0.4-0.5,0.5
			c-0.2-1-0.5-1.8-0.7-2.7C1719.6,825.8,1720.1,826.5,1720.5,827.3z M1719.5,809.1c-0.4,0.5-0.7,0.9-1.1,1.5
			c-0.1-0.8-0.1-1.5-0.1-2.4C1718.7,808.4,1719.1,808.7,1719.5,809.1z M1712.5,844.2c0-0.6,0-1.3,0-1.9c0.1,0.6,0.2,1.2,0.4,1.8
			c-0.2,0.3-0.3,0.7-0.5,1C1712.5,844.9,1712.5,844.6,1712.5,844.2z M1686.5,876.6c0.5,0.8,1,1.6,1.5,2.6c-0.1,0-0.1,0-0.2,0
			c-0.1,0-0.1-0.1-0.2-0.1h-1.6C1686.2,878.2,1686.4,877.4,1686.5,876.6z M1684.4,878.5c0,0.1,0,0.1,0,0.2c0,0.1,0,0.1,0,0.2
			c0,0-0.1,0-0.1-0.1C1684.3,878.7,1684.4,878.6,1684.4,878.5z M1681.4,936.2v-2.3c0.2,0.5,0.5,1,0.8,1.4c0.7,1,1.7,1.7,2.7,2.1
			c0.1,0.3,0.2,0.7,0.3,1c0.3,1.8,0.6,3.5,0.9,5.3C1684.4,941.2,1682.9,938.7,1681.4,936.2z M1690.6,957.6c-0.2-0.8-0.4-1.6-0.6-2.4
			c-0.5-5.7-1.9-11.5-3.5-17.1c0-0.1,0-0.2-0.1-0.4c0.2,0,0.4,0,0.6,0c0,0,0,0,0,0c-0.2,1.1,0.1,2.1,1.7,2.3
			c0.9,0.1,1.5-0.1,1.9-0.6c0.5,0.2,1.1,0.3,1.7,0.4C1691.9,945.7,1691.7,951.7,1690.6,957.6z M1697.2,944.5c0-0.6,0.1-1.2,0.1-1.8
			c0.1,0.4,0.3,0.8,0.4,1.2C1697.5,944.1,1697.3,944.3,1697.2,944.5z M1713.3,975.8c0.2,0.6,0.5,1.2,0.7,1.7c0,0-0.1,0.1-0.1,0.1
			c-0.9-1.3-1.8-2.6-2.7-3.9c0.1-0.1,0.1-0.2,0.2-0.3C1712.1,974.2,1712.7,975,1713.3,975.8z M1708.8,966.6
			c-0.9-1.3-1.8-2.7-2.7-4.3c-1.7-3-3-6.5-4.4-10.2c-0.7-2.8-1.4-5.8-2-8.9c1.4-1.7,2.8-3.4,3.9-5.4c0.3,0,0.6-0.2,0.6-0.6v-0.5
			c1.2-2.7,2.1-5.4,3-8.2c1.3,4.5,2.7,8.9,4.1,13.1c1.7,5.2,3.4,10.4,5.2,15.1c-0.2,0.5-0.5,1.1-0.9,1.6
			C1713.7,961.4,1710.8,963.7,1708.8,966.6z M1716.7,965.5c0.7-1,1.4-2.1,2.1-3.1c0.4,0.7,0.7,1.4,1.1,1.8c0,0.1,0,0.2,0.1,0.4
			C1718.9,964.8,1717.8,965.1,1716.7,965.5z M1723.4,963.7c-0.4-2.2-0.7-4.4-1.1-6.7c1.8-2.6,3.5-5.3,5.3-7.9
			c2.9-4.2,7.7-7.3,11.8-10.6c0.7,0,1.4-0.1,2-0.2c0,0,0,0.1,0,0.1c0.5,6.3,1,12.6,1.5,18.8c0,0.3,0,0.6,0,0.9
			C1736.9,960.9,1730.1,962.2,1723.4,963.7z M1744.6,961.8C1744.6,961.8,1744.6,961.8,1744.6,961.8c0,0.1,0,0.2,0,0.3
			C1744.6,962,1744.6,961.9,1744.6,961.8z M1749.2,954.4c0.2-5.3,0.4-10.5,0.6-15.8c0.4-1.5,0.8-3,1.2-4.5c1-0.6,1.9-1.3,2.9-2
			c0.1,0,0.1,0,0.2,0.1c1.9,0.7,4.2,1.7,6.3,1.7c0.9,0,1.2-0.6,1.1-1.3c0.4,0.3,0.8,0.5,1.3,0.6c0.6,0.1,1.2-0.3,1.2-0.9
			c0-0.4,0-0.8,0-1.2c0.4,0.4,0.8,0.8,1.2,1.1C1758.8,938.7,1756.1,948.5,1749.2,954.4z M1758.1,949.4c1.7-2.7,3.2-5.5,4.9-8.2
			c1.3-0.4,2.6-0.8,4-1.3c-0.1,0.8-0.2,1.5-0.3,2.3c-0.1,1-0.1,1.9-0.2,2.8C1763.7,946.5,1760.9,947.9,1758.1,949.4z M1789.2,960.1
			c-7.2,11-15.7,12.8-23.6,19.2c2.6-10.8,5.3-21.7,8-32.4c3,0.4,6,0.6,9,0.7c0,0,0,0,0,0c0.2,0.4,0.7,0.6,1.1,0.6h1.3
			c0.6,0,1.1-0.4,1.3-1c0.1-0.2,0.1-0.4,0.1-0.6c0.1-0.1,0.2-0.1,0.2-0.2c0.1,0.1,0.2,0.2,0.3,0.3c0.1,0.1,0.2,0.1,0.3,0.1
			c-0.3,0.5-0.4,1.1,0.1,1.6c0.6,0.7,1,1.5,1.8,2c0.8,0.6,1.8,0.5,2.8,0.3c0.6-0.2,1-0.7,1-1.3c0-1.1-0.2-2.2-0.9-3
			c-0.4-0.5-0.9-1-1.4-1.5c0.1-0.1,0.1-0.3,0.1-0.4c0.3-0.1,0.5-0.3,0.7-0.4c0.2,0,0.5,0,0.7,0c0.1,0,0.2,0,0.2,0
			c0.3,1.3,1,2.9,2.2,2.9C1793.1,952.2,1791.4,956.8,1789.2,960.1z M1806.7,933.4c0,0-0.1-0.1-0.1-0.1c-0.3-0.2-0.6,0.4-0.6,1.1
			c-1.7,2.3-3.3,4.6-5,6.9c-0.2-0.6-0.5-1.1-0.9-1.6c0-0.1,0-0.3-0.1-0.5c0.1-0.5,0.2-0.9,0.3-1.4c0.8-0.4,1.6-1.1,1.5-2.1
			c-0.1-0.6-0.3-1-0.7-1.4c0.6-2.7,1.2-5.4,1.8-8.1c3.2-2.4,6.7-5.9,9.3-11.3c0.9,2.9,2.9,3.4,4.5,2.9c0.1,1.1,0.2,2.2,0.4,3.2
			C1813.5,924.8,1810.1,929,1806.7,933.4z M1818.3,937.5c-2.8-0.2-5.6-0.8-8.3-2c2.4-3.1,4.9-6,7.5-8.6c0.1,2.3,0.3,4.4,0.8,6.4
			C1818.2,934.7,1818.2,936.1,1818.3,937.5z M1820.8,888.6c-0.1-0.2-0.2-0.3-0.3-0.5c-0.1-0.1-0.1-0.2-0.2-0.2
			c-0.2-0.6-0.5-1.1-0.8-1.7c0,0,0-0.1,0-0.1c0.6,0.4,1.2,1.1,1.9,2C1821.3,888.2,1821.1,888.4,1820.8,888.6z M1824.1,895.6
			c-0.4-0.8-0.8-1.6-1.2-2.2c0.5,0,1,0.2,1.4,0.6c0.2,0.5,0.3,1.1,0.5,1.7C1824.5,895.6,1824.3,895.6,1824.1,895.6z M1827.9,912.1
			c0.1-0.3,0.3-0.6,0.4-0.9c0.2,1.7,0.3,3.4,0.3,5.1C1828.4,914.9,1828.2,913.4,1827.9,912.1z"/>
		<path class="st2" d="M0.7,1033h371.2h4.7h288.7h82.4H859h182.1h189.1h4.7h288.7h82.4h293.4v-28.6l0.6-18.1c0,0-6.1-7.7-9.2-1.9
			c0-0.3-0.1-1.4-0.4-1.8c-0.7,0.4-1.4,1.2-2.2,1.3c0.3-2.2,0.1-4,1-6.2c-1.1,2.1-2.5,2.7-3.6,3.7c0.2-1.8,0.1-4.3,0.6-6.1
			c-0.1,0.3-0.3,0.4-0.6,0.4c0.1-0.6,0.6-1.5,0.6-2.1c-2.1,3.2-3.1,7.2-6.2,8.6c-0.1-0.5-0.2-1-0.2-1.4c-0.9,1.2-2.7,2.1-3.5,3.1
			c0.4-1.3,0.6-3.3,1.1-4.7c-2.2,0.8-4.2,3.7-6.1,5.5c0.2-1.4,0.1-3.5,0.4-4.8c-0.6,1.5-1.8,3.4-2.4,5.4c0.2-2.5,0.1-4.6,0.6-7
			c-0.7,1.6-2.2,3.5-3.1,5.4c0.2-2.5-0.1-5.1,0.1-7.6c-0.8,2.1-2.3,4.4-3,6.2c-0.7-2.5-1.5-4.3-1.4-7c-0.6,2.9-1.2,5.8-2.1,8.5
			c-0.3-2.1-1.2-3.9-1.2-6.2c-1.1,2.1-2.3,5.5-3.5,7.2c-0.3-0.4-0.1-1.7-0.2-2.3c-0.4,0.4-1.9,1.4-2.4,1.5c-0.2-1.4-1.3-3-1.3-4.7
			c-1.4,1.3-2.9,0.7-4.2,1.4c0.1-1.9-0.5-4.3-0.1-6.2c-0.9,2.8-2,5.4-3.7,7c0.1-1.2-0.1-2.5-0.1-3.8c-1.5,2.7-3.1,5.7-4.9,7.8
			c0.2-0.9,0.2-2.1,0.4-3.1c-0.7,1.7-2.5,3.3-3.5,4.8c0.1-2-0.3-4.2-0.1-6.2c-1.5,3.3-2.7,6.5-3.8,10.1c-0.8-2.5-0.9-5.8-0.8-8.7
			c-0.3,1.8-1.6,4.8-2.2,7c-1.3-2.7-1.8-5.9-2-9.2c-1,2.3-1.7,5.7-2.4,7.8c-1-3.7-1.8-7.8-1.4-11.9c-0.9,3.2-1,6.8-1.4,10.3
			c-1.8-3.8-3.9-8.5-3.6-13.6c-0.9,3.9-0.3,8-1.4,11.9c-0.2,0.1-2.4,1.4-2.8,1.6c-0.3-2.1-1.2-4.6-0.9-7.2c-1,1.8-2.4,3.7-3,6.2
			c0-3.1,0.1-6.3-0.1-9.3c-1.3,2.4-2.7,4.7-4.2,6.9c0.3-2.7,1.3-5.9,1.7-8.5c-2,2.8-3.1,6.5-5.4,8.7c0.1-2.7,0.5-5.3,1.2-7.8
			c-1.4,3.5-3.2,7.3-5.6,9.5c0-2.6,0-5.3,0.5-7.8c-1.1,3.6-2.3,7.8-4.3,10.3c0.3-1.8,0.2-4.3,0.6-6.2c-0.9,2.3-2.6,3.8-3.7,5.4
			c0-1.3-0.2-2.7-0.2-4c-0.2,1-1.4,3-1.7,4.1c-0.8-1.8-2.1-3.2-2.6-5.6c0.2,2.1-0.1,4.2-0.1,6.2c-1.8-1.6-3.8-4.3-4.2-7.6
			c0.1,2.2-0.5,4-0.9,5.9c-2.2-2.7-4.1-6.5-5.3-10.3c0,2.4-0.8,5.3-1.3,7c-0.2-2.8-0.2-5.8-0.1-8.6c-1.3,2.9-2.1,6.6-3.7,8.6
			c0.2-2.6,0.5-5.3,1.1-8c-1.8,2.6-2.9,6.5-5,9.4c0.1-2.3-0.2-4.6,0.1-6.8c-0.6,2.5-1.9,4.7-3.1,6.2c-0.1-1-0.1-2-0.2-2.9
			c-0.7,1.1-2.4,2-3,2.9c-0.1-0.9-0.6-2-0.7-3.1c-0.5,1-2.4,2.3-2.9,3.1c-0.2-1.3-0.8-2.5-0.9-4c-0.4,1.2-2,3.7-2.4,5
			c-0.2-0.9-1-2.5-1.2-3.9c-0.5,1.2-1.6,2.4-2.1,3.5c-0.3-1.6-1.5-3.6-1.7-5.1c-0.2,1.5-0.6,2.8-0.8,4.5c-0.6-1.6-1.4-3.5-1.8-5.8
			c-0.1,0.5-1.2,5.1-1.7,6.6c-0.1-2.5-0.4-5.3-0.1-7.9c-1,3.4-1.2,6.9-2.1,10.3c-0.7-2.2-1.4-3.9-1.1-7c-1,2.2-2.2,4.5-3,6.8
			c-0.2-0.9-0.2-2-0.3-2.9c-0.9,0.1-1.7,0.7-2.9,0.6c0-0.7,0.1-2.2-0.1-2.9c-0.9,1.5-2.3,1.9-3.1,2.9c0-1.4-0.6-2.9-0.7-3.9
			c-0.6,0.9-2.4,2.1-3,3.1c-0.2-1.5-0.6-2.2-0.8-3.7c-0.2,1.2-0.7,2.5-0.8,3.8c-0.6-1.3-2-2.9-2.4-4.6c-0.1,1.3-0.8,3.5-0.8,5.2
			c-0.8-2.2-1.5-3.4-1.8-6c0.2,3.1-0.4,4.3-1.1,6.2c-0.7-4-2.9-3.7-5-1.7c-0.3-0.5-0.1-1.7-0.2-2.3c-0.7,0.9-2.2,1.5-2.9,2.3
			c0.1-1.2-0.3-2.7-0.2-3.9c-0.8,1.2-2.8,2.1-3.7,3.3c-1-0.1-0.1-1.2-0.7-1.7c-0.8,1.1-2.1,1.7-2.9,2.3c0.1-1.2-0.3-2.7-0.2-3.9
			c-0.8,0.9-2.1,1.7-2.9,2.9c-0.4-0.4,0.3-1.9-0.2-2.2c-0.4,0.8-1,1.7-1.6,2.3c-0.9-2.4-1.4-5.1-1.4-7.9c-0.7,3-1.2,6.3-2.4,8.7
			c-0.1-1.4-0.6-4-0.6-4.8c0.1,2.3-0.6,4.2-0.9,6.4c-0.3,0.2-2.6,1.2-3.5,1.4c-0.2-0.7,0.1-1.5-0.2-2.1c-1.1,1.2-3.2,1.5-4.2,2.3
			c-0.3-0.6-0.1-1.6-0.2-2.3c-0.5,0.8-1.8,1.7-2.4,2.3c-0.6-1.3-2-2.2-2.5-3.3c-0.6,1.6-2,3.6-2.4,5.6c0.2-9.6-2.4-18.2-7.1-25.6
			c3.5,5.1,3.4,20.8,0.7,26.4c-1.5-3.1-2.1-7.1-1.8-10.9c-0.9,4.4-1.5,9-2.7,13.2c-1.7-1.9-1.2-6.3-2.4-7.6c-1-1.1-2.9-0.9-3.5-1.6
			c-1-1.2-3.1-0.2-4.5-2.2c-1.7-2.3-1.5-7.9-1.3-10.8c-1.6,4.2-2.5,9.5-3.2,14.2c0-3.4,0-6.7,0-10.1c-1.4,5-3,10.9-4.9,15.8
			c-1.1-2.6-1.2-6.1-1.6-9.3c-1.1,3.5-1.9,7.5-3.2,11c-1-3.8-1.4-8.4-1.1-12.6c-1.4,4-2.2,8.5-1.9,13.4c-0.7-3.6-1.6-7.5-2.4-10.9
			c-1,2.7-1.5,5.7-1.5,8.7c-2.3-3.7-3.8-10.4-4.7-14.6c-0.5,3.7-1.1,7.7-2,11.1c-1.1-5.4-1.8-11.3-2.6-16.9c-1.8,3.3-2.4,8.6-3,12.9
			c-1.3-6.3-0.7-13.5-0.6-20c-1.3,5.5-2,11.5-3.7,16.7c0.1-2.5-0.1-5.1,0.5-7.6c-2.9,4.5-4.1,10.3-6.8,15c0.2-1.6-0.4-3.8-0.2-5.4
			c-2.1,1.7-4,4.7-6.1,6.4c0-2.1-0.8-4.2-0.7-6.2c-0.4,1.6-1.1,3.1-1.7,4.7c-0.3-0.3-0.6-0.5-0.9-0.8c-0.2-2.6-0.5-5.3-0.6-8
			c-0.9,2-1.5,4.2-1.7,6.5c-0.3-0.1-0.5-0.2-0.8-0.3c-0.8-3.2-1.2-7.1-1.3-10.4c-0.4,3.4-0.8,6.7-0.6,10.2
			c-0.7-4.4-1.6-10.1-3.2-14.2c0,5.1-0.2,10.5-0.6,15.7c-0.3,0.2-0.5,0.3-0.8,0.3c0.3-2.2,0.1-4,1-6.2c-0.6,1.2-1.3,1.9-2,2.4
			c-0.1-0.6-0.2-1.2-0.3-1.8c-0.5,0.6-0.9,1.4-1.2,2.3c0.1-1.7,0.1-3.7,0.5-5.3c-0.1,0.3-0.3,0.4-0.6,0.4c0.1-0.6,0.6-1.5,0.6-2.1
			c-1.2,1.8-2,3.9-3.1,5.6c0-0.3,0-0.6,0-0.9c-0.6,0.9-1.3,2-1.9,3.1c-0.4,0.3-0.8,0.6-1.2,0.8c-0.1-0.5-0.2-1-0.2-1.4
			c0,0-0.1,0.1-0.1,0.1c0.3-2.1,0.6-4.3,0.6-6.5c-1.1,1.8-2.2,3.6-3.1,5.6c0.1-0.3,0.1-0.6,0.2-0.8c-0.8,0.3-1.6,0.9-2.4,1.6
			c0.7-4.3,1.9-8.5,1.3-12.9c-1.7,5-2.8,10.5-4.1,15.9c-0.3,0.3-0.6,0.7-0.9,0.9c0.2-1.4,0.1-3.5,0.4-4.8c-0.2,0.6-0.6,1.3-1,2.1
			c0-0.3,0-0.7,0-1.1c-0.3,1.3-0.9,2.5-1.4,3.8c0.2-2.3,0.1-4.2,0.5-6.5c-0.4,0.8-0.9,1.6-1.5,2.6c-0.1-0.6-0.1-1.2-0.2-1.8
			c-0.5,0.6-1,1.3-1.4,2.1c0-1.7-0.1-3.4,0-5.1c-0.7,2-2.3,4.4-2.9,6.1c-0.3-2.3-0.5-4.8-0.7-7c-0.2,0.6-0.4,1.3-0.6,1.9
			c-0.1-0.6-0.1-1.2-0.1-1.9c-0.6,2.9-1.2,5.8-2.1,8.5c-0.3-2.1-1.2-3.9-1.2-6.2c-0.3,0.6-0.6,1.2-0.9,1.9
			c0.2-7.3,1.5-15.3-0.6-21.3c-1.5,7.5-1.8,16.6-3.1,24.9c-0.6,0.4-1.3,0.8-1.6,0.8c-0.2-1.4-1.3-3-1.3-4.7
			c-0.3,0.3-0.6,0.5-0.9,0.6c0-0.8,0-1.6-0.1-2.3c-0.4,0.8-0.8,1.7-1.2,2.7c-0.7,0.1-1.4,0.1-2,0.5c0.1-1.9-0.5-4.3-0.1-6.2
			c-0.6,1.9-1.3,3.7-2.3,5.2c0-4.6,0.2-9.2,0.5-13.6c-3.2,3.7-5.7,10.1-7.9,14.6c-0.6-5.3,0.8-10.7,0.5-16.1c-3,4.7-5,11.4-8.1,15.3
			c-0.3-2.4-1.4-4.6-1.8-6.4c-1,3.5-0.6,7.1-1.2,10.7c-0.2-1.3-0.4-2.6-0.4-3.9c-0.7,1.6-1.2,3.6-1.7,5.4c-0.5-0.1-1-0.2-1.4-0.4
			c-0.6-2.9-1-6-0.7-9c-0.6,2.4-0.9,5.1-1.2,7.8c-0.8-0.7-1.5-1.4-2.3-2.1c-1-2.7-1.8-5.8-1.6-8.9c-0.6,2.4-0.6,4.8-0.7,7.3
			c0,0,0,0-0.1,0c-0.1,1.1-0.2,2.2-0.3,3.3c-0.1,0.5-0.2,0.9-0.3,1.4c-0.2,0.1-2.4,1.4-2.8,1.6c-0.3-2.1-1.2-4.6-0.9-7.2
			c-1,1.8-2.4,3.7-3,6.2c0-3.1,0.1-6.3-0.1-9.3c-1.3,2.4-2.7,4.7-4.2,6.9c0.3-2.7,1.3-5.9,1.7-8.5c-2,2.8-3.1,6.5-5.4,8.7
			c0.1-2.7,0.5-5.3,1.2-7.8c-1.4,3.5-3.2,7.3-5.6,9.5c0-2.6,0-5.3,0.5-7.8c-1.1,3.6-2.3,7.8-4.3,10.3c0.3-1.8,0.2-4.3,0.6-6.2
			c-0.9,2.3-2.6,3.8-3.7,5.4c0-1.3-0.2-2.7-0.2-4c-0.2,1-1.4,3-1.7,4.1c-0.8-1.8-2.1-3.2-2.6-5.6c0.2,2.1-0.1,4.2-0.1,6.2
			c-1.8-1.6-3.8-4.3-4.2-7.5c0.1,2.2-0.5,4-0.9,5.9c-2.2-2.7-4.1-6.5-5.3-10.3c0,2.4-0.8,5.3-1.3,7c-0.2-2.8-0.2-5.8-0.1-8.6
			c-1.3,2.9-2.1,6.6-3.7,8.6c0.2-2.6,0.5-5.3,1-8c-1.8,2.6-2.9,6.5-4.9,9.4c0.1-2.3-0.2-4.6,0.1-6.8c-0.6,2.5-1.9,4.7-3.1,6.2
			c-0.1-1-0.1-2-0.2-2.9c-0.7,1.1-2.4,2-3,2.9c-0.1-0.9-0.6-2-0.7-3.1c-0.5,1-2.4,2.3-2.9,3.1c-0.2-1.3-0.8-2.5-0.9-4
			c-0.4,1.2-2,3.7-2.4,5c-0.2-0.9-1-2.5-1.2-3.9c-0.5,1.2-1.6,2.4-2,3.5c-0.3-1.6-1.5-3.6-1.7-5.1c-0.2,1.5-0.6,2.8-0.7,4.5
			c-0.6-1.6-1.4-3.5-1.8-5.8c-0.1,0.5-1.2,5.1-1.7,6.6c-0.1-2.5-0.4-5.3-0.1-7.9c-1,3.4-1.2,6.9-2.1,10.3c-0.7-2.2-1.4-3.9-1.1-7
			c-0.9,2.2-2.2,4.5-3,6.8c-0.2-0.9-0.2-2-0.3-2.9c-0.9,0.1-1.7,0.7-2.9,0.6c0-0.7,0.1-2.2-0.1-2.9c-0.9,1.5-2.3,1.9-3.1,2.9
			c0-1.4-0.6-2.9-0.7-3.9c-0.6,0.9-2.4,2.1-3,3.1c-0.2-1.5-0.6-2.2-0.7-3.7c-0.2,1.2-0.7,2.5-0.8,3.8c-0.6-1.3-2-2.9-2.4-4.6
			c-0.1,1.3-0.8,3.5-0.8,5.2c-0.8-2.2-1.5-3.4-1.8-6c0.2,3.1-0.4,4.3-1.1,6.2c-0.7-4-2.9-3.7-5-1.7c-0.3-0.5-0.1-1.7-0.2-2.3
			c-0.7,0.9-2.2,1.5-2.9,2.3c0.1-1.2-0.3-2.7-0.2-3.9c-0.8,1.2-2.8,2.1-3.7,3.3c-1-0.1-0.1-1.2-0.7-1.7c-0.8,1.1-2.1,1.7-2.9,2.3
			c0.1-1.2-0.3-2.7-0.2-3.9c-0.9,0.9-2.1,1.7-2.9,2.9c-0.4-0.4,0.3-1.9-0.2-2.2c-0.4,0.8-1,1.7-1.6,2.3c-0.9-2.4-1.4-5.1-1.4-7.9
			c-0.7,3-1.2,6.3-2.4,8.7c-0.1-1.4-0.6-4-0.6-4.8c0.1,2.3-0.6,4.2-0.9,6.4c-0.3,0.2-2.6,1.2-3.5,1.4c-0.2-0.7,0.1-1.5-0.2-2.1
			c-1.1,1.2-3.2,1.5-4.2,2.3c-0.3-0.6-0.1-1.6-0.2-2.3c-0.5,0.8-1.8,1.7-2.4,2.3c-0.6-1.3-2-2.2-2.5-3.3c-0.6,1.6-2,3.6-2.3,5.6
			c0.2-9.6-2.4-18.2-7.1-25.6c3.5,5.1,3.4,20.8,0.7,26.4c-1.5-3.1-2.1-7.1-1.8-10.9c-0.9,4.4-1.6,9-2.7,13.2
			c-1.7-1.9-1.2-6.3-2.4-7.6c-1-1.1-2.8-0.9-3.5-1.6c-1-1.2-3.1-0.2-4.5-2.2c-1.7-2.3-1.5-7.9-1.3-10.8c-1.6,4.2-2.5,9.5-3.2,14.2
			c0-3.4,0-6.7,0-10.1c-1.4,5-3,10.9-4.9,15.8c-1.1-2.6-1.2-6.1-1.6-9.3c-1.1,3.5-1.9,7.5-3.2,11c-1-3.8-1.4-8.4-1-12.6
			c-1.4,4-2.2,8.5-1.9,13.4c-0.7-3.6-1.6-7.5-2.4-10.9c-1,2.7-1.5,5.7-1.5,8.7c-2.3-3.7-3.8-10.4-4.7-14.6c-0.5,3.7-1.1,7.7-2,11.1
			c-1.1-5.4-1.8-11.3-2.6-16.9c-1.8,3.3-2.4,8.6-3,12.9c-1.3-6.3-0.7-13.5-0.6-20c-1.3,5.5-2,11.5-3.7,16.7c0.1-2.5-0.1-5.1,0.5-7.6
			c-2.9,4.5-4.1,10.3-6.8,15c0.2-1.6-0.4-3.8-0.2-5.4c-2.1,1.7-4,4.7-6.1,6.4c0-2.1-0.8-4.2-0.7-6.2c-0.6,2.3-1.8,4.6-2.4,6.9
			c-0.1-3.7-0.6-7.3-0.7-11c-1.1,2.5-1.8,5.5-1.9,8.5c-1.2-3.5-1.9-8.5-1.9-12.6c-0.4,3.4-0.8,6.7-0.6,10.2
			c-0.7-4.4-1.6-10.1-3.2-14.2c0,6-0.4,12.4-0.7,18.5c-0.9-2.2-1.5-5.2-1.9-8c-1.6,2.1-2.4,5.6-3,8.7c-0.8-2.7-0.8-5.8-0.8-8.7
			c-1.4,2-2.8,4.8-4.2,7.1c0.4-3.5,1.3-7.2,1.2-11c-2.4,3.8-4.6,8-5.7,12.5c-0.3-6.6,2.6-12.7,1.8-19.1c-2.3,6.8-3.6,14.5-5.5,21.6
			c0.1-2.8,0.1-5.8-0.1-8.5c-0.5,1.7-1.4,3.4-1.8,5.2c0.1-2.5-0.6-4.6-0.7-7.1c-1.8,2-2.7,5.5-3.2,8.9c-1.1-3.5-1.4-8.6-1.9-12.8
			c-1.8,4.9-2,10.8-3.1,16.1c-4.3-8.5,1-23.6-2.4-33.2c-2.5,12.1-1.8,28.3-6.7,38.9c-0.4-6.4,0.1-13.1-0.3-19.6
			c-1.5,3.2-2.8,7.7-5.4,9.7c-0.3-7,0-14.3,0.4-21.1c-3.1,3.7-5.7,10.1-7.9,14.6c-0.7-5.3,0.8-10.7,0.5-16.1c-3,4.7-5,11.4-8.1,15.3
			c-0.3-2.4-1.4-4.6-1.8-6.4c-1.2,4-0.4,8.1-1.5,12.1c-4.3,1-6.4-3.9-9.7-5.5c-0.1,0.8-0.2,1.5-0.2,2.3c-1.4-0.4-2.9,0-3.9,2
			c0-0.3-0.1-1.4-0.4-1.8c-0.6,0.4-1.4,1.2-2.2,1.3c0.3-2.2,0.1-4,1-6.2c-1.1,2.1-2.5,2.7-3.6,3.7c0.2-1.8,0.1-4.3,0.6-6.1
			c-0.1,0.3-0.3,0.4-0.6,0.4c0.1-0.6,0.6-1.5,0.6-2.1c-2.1,3.2-3.1,7.2-6.2,8.6c-0.1-0.5-0.2-1-0.3-1.4c-0.9,1.2-2.7,2.1-3.5,3.1
			c0.4-1.3,0.6-3.3,1.1-4.7c-2.2,0.8-4.2,3.7-6.1,5.5c0.2-1.4,0.1-3.5,0.4-4.8c-0.6,1.5-1.8,3.4-2.4,5.4c0.2-2.5,0.1-4.6,0.6-7
			c-0.7,1.6-2.2,3.5-3.1,5.4c0.2-2.5-0.1-5.1,0.1-7.6c-0.7,2.1-2.3,4.4-3,6.2c-0.7-2.5-1.5-4.3-1.4-7c-0.6,2.9-1.2,5.8-2.1,8.5
			c-0.3-2.1-1.2-3.9-1.2-6.2c-1.1,2.1-2.3,5.5-3.5,7.2c-0.3-0.4-0.1-1.7-0.2-2.3c-0.4,0.4-1.9,1.4-2.4,1.5c-0.2-1.4-1.3-3-1.3-4.7
			c-1.4,1.3-2.9,0.7-4.2,1.4c0.1-1.9-0.5-4.3-0.1-6.2c-0.9,2.8-2,5.4-3.7,7c0.1-1.2-0.1-2.5-0.1-3.8c-1.5,2.7-3.1,5.7-4.9,7.8
			c0.2-0.9,0.2-2.1,0.4-3.1c-0.7,1.7-2.5,3.3-3.5,4.8c0.1-2-0.3-4.2-0.1-6.2c-1.5,3.3-2.7,6.5-3.8,10.1c-0.8-2.5-0.9-5.8-0.8-8.7
			c-0.3,1.8-1.6,4.8-2.2,7c-1.3-2.7-1.8-5.9-2-9.2c-1,2.3-1.7,5.7-2.4,7.8c-1-3.7-1.8-7.8-1.4-11.9c-0.9,3.2-1,6.8-1.4,10.3
			c-1.8-3.8-3.9-8.5-3.6-13.6c-0.9,3.9-0.3,8-1.4,11.9c-0.2,0.1-2.4,1.4-2.8,1.6c-0.3-2.1-1.2-4.6-0.9-7.2c-1,1.8-2.4,3.7-3,6.2
			c0-3.1,0.1-6.3-0.1-9.3c-1.3,2.4-2.7,4.7-4.2,6.9c0.3-2.7,1.3-5.9,1.7-8.5c-2,2.8-3.1,6.5-5.4,8.7c0.1-2.7,0.5-5.3,1.2-7.8
			c-1.4,3.5-3.2,7.3-5.6,9.5c0-2.6,0-5.3,0.5-7.8c-1.1,3.6-2.3,7.8-4.3,10.3c0.3-1.8,0.2-4.3,0.6-6.2c-0.9,2.3-2.6,3.8-3.7,5.4
			c0-1.3-0.2-2.7-0.2-4c-0.2,1-1.4,3-1.7,4.1c-0.8-1.8-2.1-3.2-2.6-5.6c0.2,2.1-0.1,4.2-0.1,6.2c-1.8-1.6-3.8-4.3-4.2-7.5
			c0.1,2.2-0.5,4-0.9,5.9c-2.2-2.7-4.1-6.5-5.3-10.3c0,2.4-0.8,5.3-1.3,7c-0.2-2.8-0.2-5.8-0.1-8.6c-1.3,2.9-2.1,6.6-3.7,8.6
			c0.2-2.6,0.5-5.3,1.1-8c-1.8,2.6-2.9,6.5-5,9.4c0.1-2.3-0.2-4.6,0.1-6.8c-0.6,2.5-1.9,4.7-3.1,6.2c-0.1-1-0.1-2-0.2-2.9
			c-0.7,1.1-2.4,2-3,2.9c-0.1-0.9-0.6-2-0.7-3.1c-0.5,1-2.4,2.3-2.9,3.1c-0.2-1.3-0.8-2.5-0.9-4c-0.4,1.2-2,3.7-2.4,5
			c-0.2-0.9-1-2.5-1.2-3.9c-0.5,1.2-1.6,2.4-2,3.5c-0.3-1.6-1.5-3.6-1.7-5.1c-0.2,1.5-0.6,2.8-0.8,4.5c-0.6-1.6-1.4-3.5-1.8-5.8
			c-0.1,0.5-1.2,5.1-1.7,6.6c-0.1-2.5-0.4-5.3-0.1-7.9c-1,3.4-1.2,6.9-2.1,10.3c-0.7-2.2-1.4-3.9-1.1-7c-0.9,2.2-2.2,4.5-3,6.8
			c-0.2-0.9-0.2-2-0.2-2.9c-0.9,0.1-1.7,0.7-2.9,0.6c0-0.7,0.1-2.2-0.1-2.9c-0.9,1.5-2.3,1.9-3.1,2.9c0-1.4-0.6-2.9-0.7-3.9
			c-0.6,0.9-2.4,2.1-3,3.1c-0.2-1.5-0.6-2.2-0.8-3.7c-0.2,1.2-0.7,2.5-0.8,3.8c-0.6-1.3-2-2.9-2.4-4.6c-0.1,1.3-0.8,3.5-0.8,5.2
			c-0.8-2.2-1.5-3.4-1.7-6c0.2,3.1-0.4,4.3-1.1,6.2c-0.7-4-2.9-3.7-5-1.7c-0.3-0.5-0.1-1.7-0.2-2.3c-0.7,0.9-2.2,1.5-2.9,2.3
			c0.1-1.2-0.3-2.7-0.2-3.9c-0.8,1.2-2.8,2.1-3.7,3.3c-1-0.1-0.2-1.2-0.7-1.7c-0.7,1.1-2.1,1.7-2.9,2.3c0.1-1.2-0.3-2.7-0.2-3.9
			c-0.8,0.9-2.1,1.7-2.9,2.9c-0.4-0.4,0.3-1.9-0.2-2.2c-0.4,0.8-1,1.7-1.6,2.3c-0.9-2.4-1.4-5.1-1.4-7.9c-0.7,3-1.2,6.3-2.4,8.7
			c-0.1-1.2-0.4-3.1-0.5-4.2c0-0.1,0.1-0.3,0.1-0.4c0,0.1-0.1,0.1-0.1,0.2c0-0.2,0-0.3,0-0.4c0,0.2,0,0.3,0,0.5
			c-1,1.8-2.4,2.4-3.4,3.4c0.2-1.8,0.1-4.3,0.6-6.1c-0.1,0.3-0.3,0.4-0.6,0.4c0.1-0.6,0.6-1.5,0.6-2.1c-2.1,3.2-3.1,7.2-6.2,8.6
			c-0.1-0.5-0.2-1-0.2-1.4c-0.9,1.1-2.5,2-3.4,3c0,0,0,0-0.1-0.1c0.4-1.3,0.5-3.2,1.1-4.5c-1.7,0.6-3.2,2.4-4.7,4.1
			c-0.6-7.8-3-14.8-7-21.1c2.4,3.6,3.1,12.4,2.4,19.2c-0.5,0.8-0.9,1.5-1.3,2.3c0.2-2.5-0.1-5.1,0.1-7.6c-0.6,1.5-1.6,3.2-2.3,4.7
			c-0.1-1-0.1-2.1,0-3.1c-0.3,1.4-0.6,2.8-0.8,4.2c-0.6-2.3-1.3-4-1.3-6.7c-0.6,2.9-1.3,5.8-2.1,8.5c-0.3-2.1-1.2-3.9-1.2-6.2
			c-0.7,1.3-1.4,3.1-2.2,4.7c-0.4-0.1-0.8-0.2-1.1-0.5c-0.9-1.1-2.7-0.4-4.1-1.8c0-0.2-0.1-0.5-0.1-0.7c-0.1,0.1-0.2,0.1-0.3,0.2
			c-1.6-2.4-1.4-7.8-1.2-10.6c-1.3,3.3-2,7.2-2.7,11c-0.1-1.7-0.4-3.7-0.1-5.3c-0.1,0.4-0.3,0.8-0.4,1.2c0-0.9,0-1.9,0-2.8
			c-0.6,2.2-1.3,4.7-2,7.1c-0.4,0.6-0.8,1.1-1.2,1.5c0.1-1.2-0.1-2.5-0.1-3.8c-0.9,1.6-1.8,3.3-2.8,4.8c-0.1-1.1-0.2-2.1-0.3-3.2
			c-0.6,1.9-1.1,3.9-1.6,5.9c-0.1,0.1-0.1,0.2-0.2,0.3c0.2-0.9,0.2-2.1,0.4-3.1c-0.5,1.2-1.6,2.4-2.5,3.5c-0.4-2.7-0.5-5.5-0.2-8.2
			c-0.4,1.2-0.8,2.6-1.1,3.9c-0.6,1.5-1.3,2.9-1.8,4.4c-0.4-2-0.9-4.1-1.3-5.9c-0.5,1.4-0.9,3-1.2,4.6c0-0.8,0-1.6,0-2.3
			c-0.2,1.2-0.8,2.9-1.4,4.5c-1.7-3.8-3-9.1-3.8-12.7c-0.5,3.7-1.1,7.7-2,11.1c-0.3-1.4-0.5-2.8-0.7-4.2c-0.2-1.7-0.2-3.3-0.1-5
			c-0.2,0.7-0.3,1.4-0.4,2.1c-0.5-3.2-0.9-6.5-1.4-9.7c-1.4,2.7-2.1,6.6-2.6,10.2c-0.5-1.9-0.7-3.8-0.6-5.8c-0.2,1-0.4,1.9-0.5,2.9
			c-0.3-4.8,0-9.7,0.1-14.4c-1.3,5.5-2,11.5-3.7,16.7c0.1-2.5-0.1-5.1,0.5-7.6c-2,3.1-3.2,6.8-4.6,10.4c0-1.6,0-3.2-0.1-4.7
			c-0.7,1.3-1.5,2.6-2.3,3.9c0,0,0,0,0,0c-0.6,0.5-1.1,1-1.7,1.7c0.4-2.4,1.1-5,1.5-7.2c-2,2.8-3.1,6.5-5.4,8.7
			c0.1-2.7,0.5-5.3,1.2-7.8c-0.7,1.7-1.4,3.4-2.3,5.1c0,0,0-0.1,0-0.1c0,0.1-0.1,0.3-0.1,0.4c-0.7,1.3-1.6,2.5-2.5,3.4
			c-0.1-1.9-0.2-3.7-0.4-5.6c0.1-0.5,0.1-1,0.2-1.5c-0.1,0.3-0.2,0.6-0.3,0.9c0-0.6-0.1-1.1-0.1-1.7c-1,2.2-1.6,4.7-1.8,7.2
			c-0.1,0.2-0.2,0.4-0.3,0.6c-1.1-3.5-1.7-8.1-1.7-12c-0.4,3.4-0.8,6.7-0.6,10.2c-0.7-4.4-1.6-10.1-3.2-14.2
			c0,5.5-0.3,11.3-0.6,16.9c-0.1,0.3-0.3,0.5-0.4,0.8c-0.7-2.1-1.3-4.8-1.6-7.3c-0.5,0.7-1,1.7-1.4,2.7c0,0,0,0,0,0c0,0,0,0,0,0.1
			c-0.6,1.5-1,3.2-1.4,4.8c-0.2-0.3-0.5-0.6-0.7-1c-0.3-2.1-0.4-4.4-0.3-6.6c-0.5,0.7-1,1.6-1.6,2.5c-0.1-0.4-0.2-0.8-0.3-1.2
			c0,0.7,0,1.3-0.1,1.9c-0.5,1-1.1,1.9-1.6,2.9c-0.1-0.2-0.3-0.3-0.4-0.5c0.4-3,1.1-6.2,1-9.4c-1.1,1.8-2.2,3.7-3.1,5.6
			c-0.5-1.1-1-2.1-1.4-3.3c0.5-3,1-5.9,0.6-8.9c-1,3-1.8,6.2-2.6,9.5c0-1.2,0-2.5,0-3.7c-1.1,2.5-1.9,5.5-3.1,7.6c0-0.1,0-0.2,0-0.3
			c-0.1,0.2-0.1,0.4-0.2,0.7c-0.1,0.2-0.2,0.5-0.4,0.7c0.2-2.6,0.5-5.3,1.1-8c-1.1,1.6-1.9,3.6-2.9,5.6c0-0.2-0.1-0.5-0.1-0.7
			c-0.9,0.9-1.5,2.2-2,3.7c0-2-0.2-4,0-5.9c-0.5,2-1.4,3.8-2.4,5.2c-0.3-2.3-0.5-4.7-0.7-6.9c-0.7,2-1.2,4.1-1.5,6.3
			c-0.7,0.5-1.3,1-1.7,1.6c-0.1-0.9-0.6-2-0.7-3.1c-0.2,0.3-0.6,0.7-1,1.1c0-7.7,1.6-16.6-0.6-23c-1.4,6.7-1.8,14.6-2.7,22.2
			c-0.6,1.3-1.6,2.9-1.9,3.8c-0.2-0.9-1-2.5-1.2-3.9c-0.2,0.6-0.7,1.2-1.1,1.8c0-1.5,0-3-0.1-4.6c-0.6,1.2-1.1,2.5-1.7,3.9
			c-0.4-1-0.8-1.9-0.9-2.8c-0.2,1.5-0.6,2.8-0.8,4.5c-0.6-1.6-1.4-3.5-1.8-5.8c0,0.2-0.2,0.8-0.4,1.6c0.1-4.3,0.2-8.7,0.5-12.9
			c-3.1,3.7-5.7,10.1-7.9,14.6c-0.7-5.3,0.8-10.7,0.5-16.1c-3,4.7-5,11.4-8.1,15.3c-0.3-2.4-1.4-4.6-1.8-6.4c-0.9,3-0.7,6-1,9
			c-0.2-1.1-0.6-1.8-0.6-3.1c-0.2,1.2-0.7,2.5-0.8,3.8c-0.6-1.3-2-2.9-2.4-4.6c-0.1,1.3-0.8,3.5-0.8,5.2c-0.8-2.2-1.5-3.4-1.8-6
			c0.2,2.4-0.1,3.6-0.6,4.9c-1.1-1-2.1-2-3.3-2.6c0,0.3,0,0.6-0.1,0.9c-0.7,0.2-1.4,0.7-2.2,1.3c-0.3-0.5-0.1-1.7-0.2-2.3
			c-0.7,0.9-2.2,1.5-2.9,2.3c0.1-1.2-0.3-2.7-0.2-3.9c-0.8,1.2-2.8,2.1-3.7,3.3c-1-0.1-0.1-1.2-0.7-1.7c-0.7,1.1-2.1,1.7-2.9,2.3
			c0.1-1.2-0.3-2.7-0.2-3.9c-0.8,0.9-2.1,1.7-2.9,2.9c-0.4-0.4,0.3-1.9-0.2-2.2c-0.4,0.8-1,1.7-1.6,2.3c-0.9-2.4-1.4-5.1-1.4-7.9
			c-0.7,3-1.2,6.3-2.4,8.7c-0.1-1.4-0.6-4-0.6-4.8c0.1,2.3-0.6,4.2-0.9,6.4c-0.3,0.2-2.6,1.2-3.5,1.4c-0.2-0.7,0.1-1.5-0.2-2.1
			c-1.1,1.3-3.2,1.5-4.2,2.3c-0.3-0.6-0.1-1.6-0.2-2.3c-0.5,0.8-1.8,1.7-2.4,2.3c-0.6-1.3-2-2.2-2.5-3.3c-0.6,1.6-2,3.6-2.4,5.6
			c0.2-9.6-2.4-18.2-7.1-25.6c3.5,5.1,3.4,20.8,0.7,26.4c-1.5-3.1-2.1-7.1-1.8-10.9c-0.9,4.4-1.6,9-2.7,13.2
			c-1.7-1.9-1.2-6.3-2.4-7.6c-1-1.1-2.8-0.9-3.5-1.6c-1-1.2-3.1-0.2-4.5-2.2c-1.7-2.3-1.5-7.9-1.3-10.8c-1.6,4.2-2.5,9.5-3.2,14.2
			c0-3.4,0-6.7,0-10.1c-1.4,5-3,10.9-4.9,15.8c-1.1-2.6-1.2-6.1-1.6-9.3c-1.1,3.5-1.9,7.5-3.2,11c-1-3.8-1.4-8.4-1-12.6
			c-1.5,4-2.2,8.5-1.9,13.4c-0.7-3.6-1.6-7.5-2.4-10.9c-1,2.7-1.5,5.7-1.5,8.7c-2.3-3.7-3.8-10.4-4.7-14.6c-0.5,3.7-1.1,7.7-2,11.1
			c-1.1-5.4-1.8-11.3-2.6-16.9c-1.8,3.3-2.3,8.6-3,12.9c-1.3-6.3-0.7-13.5-0.6-20c-1.3,5.5-2,11.5-3.6,16.7c0.1-2.5-0.1-5.1,0.5-7.6
			c-2.9,4.5-4.1,10.3-6.8,15c0.2-1.6-0.4-3.8-0.2-5.4c-2.1,1.7-4,4.7-6.1,6.4c0-2.1-0.8-4.2-0.7-6.2c-0.4,1.6-1.1,3.1-1.7,4.7
			c-0.3-0.3-0.6-0.5-0.9-0.8c-0.2-2.6-0.5-5.3-0.6-8c-0.9,2-1.5,4.2-1.7,6.5c-0.3-0.1-0.5-0.2-0.8-0.3c-0.8-3.2-1.2-7.1-1.3-10.4
			c-0.4,3.4-0.8,6.7-0.6,10.2c-0.7-4.4-1.6-10.1-3.2-14.2c0,5.1-0.3,10.5-0.6,15.7c-0.3,0.2-0.5,0.3-0.8,0.3c0.3-2.2,0.1-4,1-6.2
			c-0.6,1.2-1.3,1.9-2,2.4c-0.1-0.6-0.2-1.2-0.3-1.8c-0.5,0.6-0.9,1.4-1.2,2.3c0.1-1.7,0.1-3.7,0.5-5.3c-0.1,0.3-0.3,0.4-0.6,0.4
			c0.1-0.6,0.6-1.5,0.6-2.1c-1.2,1.8-2,3.9-3.1,5.6c0-0.3,0-0.6,0-0.9c-0.6,0.9-1.3,2-1.9,3.1c-0.4,0.3-0.8,0.6-1.2,0.8
			c-0.1-0.5-0.2-1-0.3-1.4c0,0-0.1,0.1-0.1,0.1c0.3-2.1,0.6-4.3,0.6-6.5c-1.1,1.8-2.2,3.6-3.1,5.6c0.1-0.3,0.1-0.6,0.2-0.8
			c-0.8,0.3-1.6,0.9-2.4,1.6c0.7-4.3,1.9-8.5,1.3-12.9c-1.7,5-2.8,10.5-4.1,15.9c-0.3,0.3-0.6,0.7-0.9,0.9c0.2-1.4,0.1-3.5,0.4-4.8
			c-0.2,0.6-0.6,1.3-1,2.1c0-0.3,0-0.7,0-1.1c-0.3,1.3-0.9,2.5-1.4,3.8c0.2-2.3,0.1-4.2,0.5-6.5c-0.4,0.8-0.9,1.6-1.5,2.5
			c-0.1-0.6-0.1-1.2-0.2-1.8c-0.5,0.6-1,1.3-1.4,2.1c0-1.7-0.1-3.4,0-5.1c-0.7,2-2.3,4.4-2.9,6.1c-0.3-2.3-0.5-4.8-0.7-7
			c-0.2,0.6-0.4,1.3-0.6,1.9c-0.1-0.6-0.1-1.2-0.1-1.9c-0.6,2.9-1.2,5.8-2.1,8.5c-0.3-2.1-1.2-3.9-1.2-6.2c-0.3,0.5-0.6,1.2-0.9,1.9
			c0.2-7.3,1.5-15.3-0.6-21.3c-1.5,7.5-1.8,16.6-3.1,24.9c-0.6,0.4-1.3,0.8-1.6,0.8c-0.2-1.4-1.3-3-1.3-4.7
			c-0.3,0.3-0.6,0.5-0.9,0.6c0-0.8,0-1.6-0.1-2.3c-0.4,0.8-0.8,1.7-1.2,2.7c-0.7,0.1-1.4,0.1-2,0.5c0.1-1.9-0.5-4.3-0.1-6.2
			c-0.6,1.9-1.3,3.7-2.3,5.2c0-4.6,0.2-9.2,0.5-13.6c-3.1,3.7-5.7,10.1-7.9,14.6c-0.7-5.3,0.8-10.7,0.5-16.1c-3,4.7-5,11.4-8.1,15.3
			c-0.3-2.4-1.4-4.6-1.8-6.4c-1.1,3.5-0.6,7.1-1.2,10.7c-0.2-1.3-0.4-2.6-0.4-3.9c-0.7,1.6-1.2,3.6-1.7,5.4c-0.5-0.1-1-0.2-1.4-0.4
			c-0.6-2.9-1-6-0.7-9c-0.6,2.4-0.9,5.1-1.2,7.8c-0.8-0.7-1.5-1.4-2.3-2.1c-1-2.7-1.8-5.8-1.6-8.9c-0.6,2.4-0.6,4.8-0.7,7.3
			c0,0,0,0-0.1,0c-0.1,1.1-0.2,2.2-0.3,3.3c-0.1,0.5-0.2,0.9-0.3,1.4c-0.2,0.1-2.4,1.4-2.8,1.6c-0.3-2.1-1.2-4.6-0.9-7.2
			c-1,1.8-2.4,3.7-3,6.2c0-3.1,0.1-6.3-0.1-9.3c-1.3,2.4-2.7,4.7-4.2,6.9c0.3-2.7,1.3-5.9,1.7-8.5c-2,2.8-3.1,6.5-5.4,8.7
			c0.1-2.7,0.5-5.3,1.2-7.8c-1.4,3.5-3.2,7.3-5.6,9.5c0-2.6,0-5.3,0.5-7.8c-1.1,3.6-2.3,7.8-4.3,10.3c0.3-1.8,0.2-4.3,0.6-6.2
			c-0.9,2.3-2.6,3.9-3.7,5.4c0-1.3-0.2-2.7-0.2-4c-0.2,1-1.4,3-1.7,4.1c-0.8-1.8-2.1-3.2-2.6-5.6c0.2,2.1-0.1,4.2-0.1,6.2
			c-1.8-1.6-3.8-4.3-4.2-7.5c0.1,2.2-0.5,4-0.9,5.9c-2.2-2.7-4.1-6.5-5.3-10.3c0,2.4-0.8,5.3-1.3,7c-0.2-2.8-0.2-5.8-0.1-8.6
			c-1.3,2.9-2.1,6.6-3.7,8.6c0.2-2.6,0.5-5.3,1.1-8c-1.8,2.6-2.9,6.5-4.9,9.4c0.1-2.3-0.2-4.6,0.1-6.8c-0.6,2.5-1.9,4.7-3.1,6.2
			c-0.1-1-0.1-2-0.2-2.9c-0.7,1.1-2.4,2-3,2.9c-0.1-0.9-0.6-2-0.7-3.1c-0.5,1-2.4,2.3-2.9,3.1c-0.2-1.3-0.8-2.5-0.9-4
			c-0.4,1.2-2,3.7-2.4,5c-0.2-0.9-1-2.5-1.2-3.9c-0.5,1.2-1.6,2.4-2,3.5c-0.3-1.6-1.5-3.6-1.7-5.1c-0.2,1.5-0.6,2.8-0.8,4.5
			c-0.6-1.6-1.4-3.5-1.8-5.8c-0.1,0.5-1.2,5.1-1.7,6.6c-0.1-2.5-0.4-5.3-0.1-7.9c-1,3.3-1.2,6.9-2.1,10.3c-0.7-2.2-1.4-3.9-1.1-7
			c-0.9,2.2-2.2,4.5-3,6.8c-0.2-0.9-0.2-2-0.3-2.9c-0.9,0.1-1.7,0.7-2.9,0.6c0-0.7,0.1-2.2-0.1-2.9c-0.9,1.5-2.2,1.9-3.1,2.9
			c0-1.4-0.6-2.9-0.7-3.9c-0.6,0.9-2.4,2.1-3,3.1c-0.2-1.5-0.6-2.2-0.8-3.7c-0.2,1.2-0.7,2.5-0.8,3.8c-0.6-1.3-2-2.9-2.4-4.6
			c-0.1,1.3-0.8,3.5-0.8,5.2c-0.8-2.2-1.5-3.4-1.8-6c0.2,3.1-0.4,4.3-1.1,6.2c-0.7-4-2.9-3.7-5-1.7c-0.3-0.5-0.1-1.7-0.2-2.3
			c-0.7,0.9-2.2,1.5-2.9,2.3c0.1-1.2-0.3-2.7-0.2-3.9c-0.8,1.2-2.8,2.1-3.7,3.3c-1-0.1-0.1-1.2-0.7-1.7c-0.7,1.1-2.1,1.7-2.9,2.3
			c0.1-1.2-0.3-2.7-0.2-3.9c-0.8,0.9-2.1,1.7-2.9,2.9c-0.4-0.4,0.3-1.9-0.2-2.2c-0.4,0.8-1,1.7-1.6,2.3c-0.9-2.4-1.4-5.1-1.4-7.9
			c-0.7,3-1.2,6.3-2.4,8.7c-0.1-1.4-0.6-4-0.6-4.8c0.1,2.3-0.6,4.2-0.9,6.4c-0.3,0.2-2.6,1.2-3.5,1.4c-0.2-0.7,0.1-1.5-0.2-2.1
			c-1.1,1.3-3.2,1.5-4.2,2.3c-0.3-0.6-0.1-1.6-0.2-2.3c-0.5,0.8-1.8,1.7-2.4,2.3c-0.6-1.3-2-2.2-2.5-3.3c-0.6,1.6-2,3.6-2.4,5.6
			c0.2-9.6-2.4-18.2-7.1-25.6c3.5,5.1,3.4,20.8,0.7,26.4c-1.5-3.1-2.1-7.1-1.8-10.9c-0.9,4.4-1.5,9-2.7,13.2
			c-1.7-1.9-1.2-6.3-2.4-7.6c-1-1.1-2.8-0.9-3.5-1.6c-1-1.2-3.1-0.2-4.5-2.2c-1.7-2.3-1.5-7.9-1.3-10.8c-1.6,4.2-2.5,9.5-3.2,14.2
			c0-3.4,0-6.7,0-10.1c-1.4,5-3,10.9-4.9,15.8c-1.1-2.6-1.2-6.1-1.6-9.3c-1.1,3.5-1.9,7.5-3.2,11c-1-3.8-1.4-8.4-1.1-12.6
			c-1.4,4-2.2,8.5-1.9,13.4c-0.7-3.6-1.6-7.5-2.4-10.9c-1,2.7-1.5,5.7-1.5,8.7c-2.3-3.7-3.8-10.4-4.8-14.6c-0.5,3.7-1.1,7.7-2,11.1
			c-1.1-5.4-1.8-11.3-2.6-16.9c-1.8,3.3-2.3,8.6-3,12.9c-1.3-6.3-0.7-13.5-0.6-20c-1.3,5.5-2,11.5-3.6,16.7c0.1-2.5-0.1-5.1,0.5-7.6
			c-2.9,4.5-4.1,10.3-6.8,15c0.2-1.6-0.4-3.8-0.2-5.4c-2.1,1.7-4,4.7-6.1,6.4c0-2.1-0.8-4.2-0.7-6.2c-0.6,2.3-1.8,4.6-2.4,6.9
			c-0.1-3.7-0.6-7.3-0.7-11c-1.1,2.5-1.8,5.5-1.9,8.5c-1.2-3.5-1.9-8.5-1.9-12.6c-0.4,3.4-0.8,6.7-0.6,10.2
			c-0.7-4.4-1.6-10.1-3.2-14.2c0,6-0.4,12.4-0.7,18.5c-0.9-2.2-1.5-5.2-1.9-8c-1.6,2.1-2.4,5.6-3,8.7c-0.8-2.7-0.9-5.8-0.8-8.7
			c-1.4,2-2.8,4.8-4.2,7.1c0.4-3.5,1.3-7.2,1.2-11c-2.4,3.8-4.6,8-5.7,12.5c-0.3-6.6,2.6-12.7,1.8-19.1c-2.3,6.8-3.6,14.5-5.5,21.6
			c0.1-2.8,0.1-5.8-0.1-8.5c-0.5,1.7-1.4,3.4-1.8,5.2c0.1-2.5-0.6-4.6-0.7-7.1c-1.8,2-2.7,5.5-3.2,8.9c-1.1-3.5-1.4-8.6-1.9-12.8
			c-1.8,4.9-2,10.8-3.1,16.1c-4.3-8.5,1-23.6-2.3-33.2c-2.5,12.1-1.8,28.3-6.7,38.9c-0.4-6.4,0.1-13.1-0.3-19.6
			c-1.5,3.2-2.8,7.7-5.4,9.7c-0.3-7,0-14.3,0.4-21.1c-3.1,3.7-5.7,10.1-7.9,14.6c-0.7-5.3,0.8-10.7,0.5-16.1c-3,4.7-5,11.4-8.1,15.3
			c-0.3-2.4-1.4-4.6-1.8-6.4c-1.2,4-0.4,8.1-1.5,12.1c-4.3,1-6.4-3.9-9.7-5.5c-0.1,0.8-0.2,1.5-0.2,2.3c-1.4-0.4-2.9,0-3.9,2
			c0-0.3-0.1-1.4-0.4-1.8c-0.7,0.4-1.4,1.2-2.2,1.3c0.3-2.2,0.1-4,1-6.2c-1.1,2.1-2.5,2.7-3.6,3.7c0.2-1.8,0.1-4.3,0.6-6.1
			c-0.1,0.3-0.3,0.4-0.6,0.4c0.1-0.6,0.6-1.5,0.6-2.1c-2.1,3.2-3.1,7.2-6.2,8.6c-0.1-0.5-0.2-1-0.2-1.4c-0.9,1.2-2.6,2.1-3.5,3.1
			c0.4-1.3,0.6-3.3,1.1-4.7c-2.2,0.8-4.2,3.7-6.1,5.5c0.2-1.4,0.1-3.5,0.4-4.8c-0.6,1.5-1.8,3.4-2.4,5.4c0.2-2.5,0.1-4.6,0.6-7
			c-0.7,1.6-2.2,3.5-3.1,5.4c0.2-2.5-0.1-5.1,0.1-7.6c-0.7,2.1-2.3,4.4-3,6.2c-0.7-2.5-1.5-4.3-1.4-7c-0.6,2.9-1.2,5.8-2.1,8.5
			c-0.3-2.1-1.2-3.9-1.2-6.2c-1.1,2.1-2.3,5.5-3.5,7.2c-0.3-0.4-0.1-1.7-0.2-2.3c-0.4,0.4-1.9,1.4-2.4,1.5c-0.2-1.4-1.3-3-1.3-4.7
			c-1.4,1.3-2.9,0.7-4.2,1.4c0.1-1.9-0.5-4.3-0.1-6.2c-0.9,2.8-2.1,5.4-3.7,7c0.1-1.2-0.1-2.5-0.1-3.8c-1.5,2.7-3.1,5.7-4.9,7.8
			c0.2-0.9,0.2-2.1,0.4-3.1c-0.7,1.7-2.5,3.3-3.5,4.8c0.1-2-0.3-4.2-0.1-6.2c-1.5,3.3-2.7,6.5-3.8,10.1c-0.8-2.5-0.9-5.8-0.8-8.7
			c-0.3,1.8-1.6,4.8-2.2,7c-1.3-2.7-1.8-5.9-2-9.2c-1,2.3-1.7,5.7-2.4,7.8c-1-3.7-1.8-7.8-1.4-11.9c-0.9,3.2-1,6.8-1.4,10.3
			c-1.8-3.8-3.9-8.5-3.6-13.6c-0.9,3.9-0.3,8-1.4,11.9c-0.2,0.1-2.4,1.4-2.8,1.6c-0.3-2.1-1.2-4.6-0.9-7.2c-1,1.8-2.4,3.7-3,6.2
			c0-3.1,0.1-6.3-0.1-9.3c-1.3,2.4-2.7,4.7-4.2,6.9c0.3-2.7,1.3-5.9,1.7-8.5c-2,2.8-3.1,6.5-5.4,8.7c0.1-2.7,0.5-5.3,1.2-7.8
			c-1.4,3.5-3.2,7.3-5.6,9.5c0-2.6,0-5.3,0.5-7.8c-1.1,3.6-2.3,7.8-4.3,10.3c0.3-1.8,0.2-4.3,0.6-6.2c-0.9,2.3-2.6,3.9-3.7,5.4
			c0-1.3-0.2-2.7-0.2-4c-0.2,1-1.4,3-1.7,4.1c-0.8-1.8-2.1-3.2-2.6-5.6c0.2,2.1-0.1,4.2-0.1,6.2c-1.8-1.6-3.8-4.3-4.2-7.5
			c0.1,2.2-0.5,4-0.9,5.9c-2.2-2.7-4.1-6.5-5.3-10.3c0,2.4-0.8,5.3-1.3,7c-0.2-2.8-0.2-5.8-0.1-8.6c-1.3,2.9-2.1,6.6-3.7,8.6
			c0.2-2.6,0.5-5.3,1.1-8c-1.8,2.6-2.9,6.5-4.9,9.4c0.1-2.3-0.2-4.6,0.1-6.8c-0.6,2.5-1.9,4.7-3,6.2c-0.1-1-0.1-2-0.2-2.9
			c-0.7,1.1-2.4,2-3,2.9c-0.1-0.9-0.6-2-0.7-3.1c-0.5,1-2.4,2.3-2.9,3.1c-0.2-1.3-0.8-2.5-0.9-4c-0.4,1.2-2,3.7-2.4,5
			c-0.2-0.9-1-2.5-1.2-3.9c-0.5,1.2-1.6,2.4-2,3.5c-0.3-1.6-1.5-3.6-1.7-5.1c-0.2,1.5-0.6,2.8-0.7,4.5c-0.6-1.6-1.4-3.5-1.8-5.8
			c-0.1,0.5-1.2,5.1-1.7,6.6c-0.1-2.5-0.4-5.3-0.1-7.9c-1,3.3-1.2,6.9-2.1,10.3c-0.7-2.2-1.4-3.9-1.1-7c-1,2.2-2.2,4.5-3,6.8
			c-0.2-0.9-0.2-2-0.3-2.9c-0.9,0.1-1.7,0.7-2.9,0.6c0-0.7,0.1-2.2-0.1-2.9c-0.9,1.5-2.2,1.9-3.1,2.9c0-1.4-0.6-2.9-0.7-3.9
			c-0.6,0.9-2.4,2.1-3,3.1c-0.2-1.5-0.6-2.2-0.8-3.7c-0.2,1.2-0.7,2.5-0.8,3.8c-0.6-1.3-2-2.9-2.4-4.6c-0.1,1.3-0.8,3.5-0.8,5.2
			c-0.8-2.2-1.5-3.4-1.7-6c0.2,3.1-0.4,4.3-1.1,6.2c-0.7-4-2.9-3.7-5-1.7c-0.3-0.5-0.1-1.7-0.2-2.3c-0.7,0.9-2.2,1.5-2.9,2.3
			c0.1-1.2-0.3-2.7-0.2-3.9c-0.8,1.2-2.8,2.1-3.7,3.3c-1-0.1-0.2-1.2-0.7-1.7c-0.8,1.1-2.1,1.7-2.9,2.3c0.1-1.2-0.3-2.7-0.2-3.9
			c-0.8,0.9-2.1,1.7-2.9,2.9c-0.4-0.4,0.3-1.9-0.2-2.2c-0.4,0.8-1,1.7-1.6,2.3c-0.9-2.4-1.4-5.1-1.4-7.9c-0.7,3-1.2,6.3-2.4,8.7
			c-0.1-1.4-0.6-4-0.6-4.8c0.1,2.3-0.6,4.2-0.9,6.4c-0.3,0.2-2.6,1.2-3.5,1.4c-0.2-0.7,0.1-1.5-0.2-2.1c-1.1,1.3-3.2,1.5-4.2,2.3
			c-0.3-0.6-0.1-1.6-0.2-2.3c-0.5,0.8-1.8,1.7-2.4,2.3c-0.6-1.3-2-2.2-2.5-3.3c-0.6,1.6-2,3.6-2.3,5.6c0.2-9.6-2.4-18.2-7.1-25.6
			c3.5,5.1,3.4,20.8,0.7,26.4c-1.5-3.1-2.1-7.1-1.8-10.9c-0.9,4.4-1.5,9-2.7,13.2c-1.7-1.9-1.2-6.3-2.4-7.6c-1-1.1-2.9-0.9-3.5-1.6
			c-1-1.2-3.1-0.2-4.5-2.2c-1.7-2.3-1.5-7.9-1.3-10.8c-1.6,4.2-2.5,9.5-3.2,14.2c0-3.4,0-6.7,0-10.1c-1.4,5-3,10.9-4.9,15.8
			c-1.1-2.6-1.2-6.1-1.6-9.3c-1.1,3.5-1.9,7.5-3.2,11c-1-3.8-1.4-8.4-1.1-12.6c-1.4,4-2.2,8.5-1.9,13.4c-0.7-3.6-1.6-7.5-2.4-10.9
			c-1,2.7-1.5,5.7-1.5,8.7c-2.3-3.7-3.8-10.4-4.7-14.6c-0.5,3.7-1.1,7.7-2,11.1c-1.1-5.4-1.8-11.3-2.6-16.9c-1.8,3.3-2.4,8.6-3,12.9
			c-1.3-6.3-0.7-13.5-0.6-20c-1.3,5.5-2,11.5-3.6,16.7c0.1-2.5-0.1-5.1,0.5-7.6c-2.9,4.5-4.1,10.3-6.8,15c0.2-1.6-0.4-3.8-0.2-5.4
			c-2.1,1.7-4,4.7-6.1,6.4c0-2.1-0.8-4.2-0.7-6.2c-0.6,2.3-1.8,4.6-2.4,6.9c-0.1-3.7-0.6-7.3-0.7-11c-1.1,2.5-1.8,5.5-1.9,8.5
			c-1.2-3.5-1.9-8.5-1.9-12.6c-0.4,3.4-0.8,6.7-0.6,10.2c-0.7-4.4-1.6-10.1-3.2-14.2c0,6-0.4,12.4-0.7,18.5c-0.9-2.2-1.5-5.2-1.9-8
			c-1.6,2.1-2.4,5.6-3,8.7c-0.8-2.7-0.8-5.8-0.8-8.7c-1.4,2-2.8,4.8-4.2,7.1c0.4-3.5,1.3-7.2,1.2-11c-2.4,3.8-4.6,8-5.7,12.5
			c-0.3-6.6,2.6-12.7,1.8-19.1c-2.3,6.8-3.6,14.5-5.5,21.6c0.1-2.8,0.1-5.8-0.1-8.5c-0.5,1.7-1.4,3.4-1.8,5.2
			c0.1-2.5-0.6-4.6-0.7-7.1c-1.8,2-2.7,5.5-3.2,8.9c-1.1-3.5-1.4-8.6-1.9-12.8c-1.8,4.9-2,10.8-3.1,16.1c-4.3-8.5,1-23.6-2.4-33.2
			c-2.5,12.1-1.8,28.3-6.7,38.9c-0.4-6.4,0.1-13.1-0.3-19.6c-1.5,3.2-2.8,7.7-5.4,9.7c-0.3-7,0-14.3,0.4-21.1
			c-3.2,3.7-5.7,10.1-7.9,14.6c-0.7-5.3,0.8-10.7,0.5-16.1c-3,4.7-5,11.4-8.1,15.3c-0.3-2.4-1.4-4.6-1.8-6.4
			c-1.2,4-0.4,8.1-1.5,12.1c-4.3,1-6.4-3.9-9.7-5.5C-1,996.9,0.7,1015.8,0.7,1033z M1030,982.8c0.1-1.5,0.2-2.9,0.7-4.5
			C1030.7,979.9,1030.3,981.3,1030,982.8z"/>
	</g>
</g>
<g>
	<g>
		<path class="st2" d="M157.9,370.9l47.4-0.2l29.3,6.3l6.2-1.9l21.9-23.5c0,0,10.4-4.4,1.4,7c0,0-15,11.7-15.4,15.4c0,0,7,0.5,4.4,5
			l2.2,4.1l-2-0.5c0,0-2,4.6-5.2,4.5c0,0-2.8,11.9-14.3,12l0.2,8.5l-3.4,4.8c0,0-11.9,6.2-16.2-2.5c-4.3-8.7-2.5-8.4-2.5-8.4
			l13.4-6.4l1.6-3.7c0,0-22.7-8.7-32.4-5.7l-24.1-5L157.9,370.9z"/>
		<path class="st3" d="M222.5,298l37.6-13.8c0,0,17.9,2.3,23.2-2.9c0,0,1.4-6.5,6.1-6.3c4.6,0.2,2.1-0.8,2.1-0.8l-1,2.8l1.5,2.2
			l15-12.7c0,0,24.7-7.4,26.6-10.7c0,0-8,13.1-20.6,18.1c-12.7,5-20.7,15.7-20.7,15.7l-4.4,10.7l1.3,7.1c0,0-7.3,2.5-10.3,2.2
			c0,0,3.1-5.7,1.2-11.7l-27.9,0.7l-18.8,2.6L222.5,298z"/>
		<path class="st2" d="M429.3,221l28.1,3.4l16.9,5.9l3.8-0.7l14.7-12.3c0,0,6.5-1.9,0.3,4.2c0,0-9.8,5.9-10.3,8c0,0,4.1,0.8,2.3,3.3
			l1,2.6l-1.2-0.4c0,0-1.5,2.6-3.4,2.3c0,0-2.5,6.8-9.4,6.1l-0.5,5l-2.4,2.6c0,0-7.5,2.8-9.4-2.6c-1.9-5.4-0.9-5.1-0.9-5.1l8.4-2.8
			l1.2-2.1c0,0-12.8-6.8-18.8-5.7l-13.9-4.7L429.3,221z"/>
		<path class="st4" d="M441.1,395.7l2.7-3l0.6-1.7l2.6-1.7l3.6-0.5l2.4-2.5c0,0,1.4-10.3,5-14.9c0,0-1-7.4,3.4-8.9
			c0,0,3.3,1.2,2.5,8.2c0,0-4.3,8.8-1.7,11.8c0,0,4.8-1.3,5.7,0.8l0.8,1.1l3.9,1.4l-4.6-0.2c0,0-1.5,3-2.8,2.5c0,0-3.5,3.1-5.9,3.4
			c0,0-1.3,6.6-0.1,9.4l-7.4,18.6c0,0-2.4-9.6,0.8-13.5c0,0-2.2-9.3,0-13.8l-6.1,3.7l-1.6-0.8L441.1,395.7z"/>
		<path class="st4" d="M530,297.8l2.7-3l0.6-1.7l2.6-1.7l3.6-0.5l2.4-2.5c0,0,1.4-10.3,5-14.9c0,0-1-7.4,3.4-8.9
			c0,0,3.3,1.2,2.5,8.2c0,0-4.3,8.8-1.7,11.8c0,0,4.8-1.3,5.7,0.8l0.8,1.1l3.9,1.4l-4.6-0.2c0,0-1.5,3-2.8,2.5c0,0-3.5,3.1-5.9,3.4
			c0,0-1.3,6.6-0.1,9.4l-7.4,18.6c0,0-2.4-9.6,0.8-13.5c0,0-2.2-9.3,0-13.8l-6.1,3.7l-1.6-0.8L530,297.8z"/>
		<path class="st4" d="M212.5,435.3c0,0-14.1,10.9-19.1,12.5c-5,1.6-13.9,10.6-15.8,15l-2.2,1.2l-14.2-2.1L129,473.4
			c0,0,31.1-4.6,36.7-1.2c0,0,1.3,0.7-2.1,3.2l-7.4,4.8c0,0,3.2,2.4,7.1,0.7c0,0,1.9-5.4,5.9-4.9c0,0,11.1-0.1,16.2-6
			c0,0,5.8-3.2,5.4-6.3l5.1-1.9c0,0-2.3-2.1-4.6-0.7c0,0-3.9-1.2-7.2,0.6c0,0,4.2-9,13.9-13.6C197.9,448.1,212.2,442.3,212.5,435.3z
			"/>
		<path class="st3" d="M345.3,406.6c0,0-14.1,10.9-19.1,12.5c-5,1.6-13.9,10.6-15.8,15l-2.2,1.2l-14.2-2.1l-32.2,11.3
			c0,0,31.1-4.6,36.7-1.2c0,0,1.3,0.7-2.1,3.2l-7.4,4.8c0,0,3.2,2.4,7.1,0.7c0,0,1.9-5.4,5.9-4.9c0,0,11.1-0.1,16.2-6
			c0,0,5.8-3.2,5.4-6.3l5.1-1.9c0,0-2.3-2.1-4.6-0.7c0,0-3.9-1.2-7.2,0.6c0,0,4.2-9,13.9-13.6C330.7,419.3,345,413.5,345.3,406.6z"
			/>
		<path class="st2" d="M30.8,432.5L53.1,451c0,0,5.1,12.1,10.2,13.5c0,0,4.6-1.5,6.2,1.5c1.6,3,1.3,1,1.3,1l-2.1,0.4l-0.9,1.7
			l13.4,4.7c0,0,13.6,12.8,16.4,12.8c0,0-11.1-0.2-18.8-6.4c-7.7-6.1-17.4-7.3-17.4-7.3l-8.3,1.1l-4,3.4c0,0-4.2-3.7-5.1-5.7
			c0,0,4.7-0.1,7.7-3.5l-10.6-17.2l-8.4-10.8L30.8,432.5z"/>
		<path class="st2" d="M55.7,280.9l47.4-0.2l29.3,6.3l6.2-1.9l21.9-23.5c0,0,10.4-4.4,1.4,7c0,0-15,11.7-15.4,15.4c0,0,7,0.5,4.4,5
			l2.2,4.1l-2-0.5c0,0-2,4.6-5.2,4.5c0,0-2.8,11.9-14.3,12l0.2,8.5l-3.4,4.8c0,0-11.9,6.2-16.2-2.5c-4.3-8.7-2.5-8.4-2.5-8.4
			l13.4-6.4l1.6-3.7c0,0-22.7-8.7-32.4-5.7l-24.1-5L55.7,280.9z"/>
		<path class="st3" d="M19.1,314.3l25.9-2.6c0,0,10.9,4.4,15.1,2c0,0,2-3.9,4.8-3c2.9,0.9,1.4-0.2,1.4-0.2l-1.1,1.6l0.6,1.7
			l11.5-5.6c0,0,16.8-0.6,18.5-2.4c0,0-7.1,6.9-15.9,8c-8.8,1.1-15.6,6.5-15.6,6.5l-4.5,6l-0.3,4.7c0,0-5,0.4-6.8-0.3
			c0,0,2.9-3.1,2.6-7.2l-17.7-4.1L25.4,318L19.1,314.3z"/>
		<path class="st3" d="M14.8,503.9l25.9-2.6c0,0,10.9,4.4,15.1,2c0,0,2-3.9,4.8-3c2.9,0.9,1.4-0.2,1.4-0.2l-1.1,1.6l0.6,1.7
			l11.5-5.6c0,0,16.8-0.6,18.5-2.4c0,0-7.1,6.9-15.9,8c-8.8,1.1-15.6,6.5-15.6,6.5l-4.5,6l-0.3,4.7c0,0-5,0.4-6.8-0.3
			c0,0,2.9-3.1,2.6-7.2L33.4,509l-12.3-1.4L14.8,503.9z"/>
		<path class="st4" d="M83.9,546.7l0.2-8.1c0,0-4.4-2.9-11.8-3.2c0,0,5.5-5,13.2-1.4c0.1,0,0.2,0.1,0.2,0.1c0,0,0.4-2.5,1.9-2.3
			l0.8-0.9l-0.1,1.5c0,0,0.6,1.2,0.3,2.3c0,0,8.4,0.7,13.6,7.3c0,0-11.4-3.9-14.5-2.4L83.9,546.7z"/>
		<path class="st4" d="M234.4,358.7l2.4-7.7c0,0-3.4-4-10.5-6.3c0,0,6.7-3.3,13,2.3c0.1,0.1,0.1,0.1,0.2,0.2c0,0,1-2.3,2.4-1.7
			l1-0.6l-0.5,1.4c0,0,0.2,1.3-0.4,2.3c0,0,7.9,3,11.1,10.7c0,0-9.9-6.9-13.2-6.2L234.4,358.7z"/>
		<path class="st4" d="M360.5,437.9l8.1-0.7c0,0,2.4-4.7,1.8-12.1c0,0,5.6,4.9,2.9,12.9c0,0.1-0.1,0.2-0.1,0.2c0,0,2.5,0.1,2.5,1.6
			l0.9,0.7l-1.5,0.1c0,0-1.1,0.7-2.3,0.5c0,0,0.2,8.5-5.6,14.4c0,0,2.5-11.8,0.7-14.6L360.5,437.9z"/>
		<path class="st2" d="M497.7,371.5l7.9-2c0,0,1.6-5-0.1-12.2c0,0,6.3,4,4.9,12.3c0,0.1,0,0.2,0,0.3c0,0,2.5-0.3,2.7,1.2l1,0.5
			l-1.4,0.3c0,0-1,0.9-2.2,0.9c0,0,1.5,8.3-3.4,15.1c0,0,0.7-12-1.6-14.6L497.7,371.5z"/>
		<path class="st3" d="M355.1,279.8l2.9-7.6c0,0-3.2-4.2-10.1-6.9c0,0,6.9-2.9,12.9,3c0.1,0.1,0.1,0.1,0.2,0.2c0,0,1.2-2.2,2.5-1.5
			l1-0.6l-0.6,1.3c0,0,0.1,1.3-0.5,2.3c0,0,7.7,3.5,10.4,11.4c0,0-9.5-7.4-12.9-7L355.1,279.8z"/>
	</g>
</g>
</svg>
